<svg width="50" height="50" viewBox="0 0 50 50" fill="none" xmlns="http://www.w3.org/2000/svg">
<g id="arcticons:santander">
<path id="Vector" d="M16.4812 22.9584C16.4812 30.1886 24.4062 35.5771 25.1333 41.8084C25.1333 41.8084 26.5719 40.3698 26.5719 36.875C26.5719 33.3803 19.1479 22.95 19.1479 19.6073C19.1479 17.0292 19.3885 15.999 20.6625 14.4959C20.6625 20.3271 30.1354 26.825 30.1354 33.175C30.1354 33.175 31.574 31.7355 31.574 28.2417C31.574 24.748 24.15 14.3167 24.15 10.974C24.15 8.39588 24.3906 7.36567 25.6635 5.86255C25.6635 10.5 31.6573 15.5917 34.1094 23.1125C40.7531 24.9396 45.3125 28.698 45.3125 33.0386C45.3125 39.1688 36.2187 44.1386 25 44.1386C13.7812 44.1386 4.6875 39.1688 4.6875 33.0375C4.6875 28.5688 9.51771 24.7188 16.4812 22.9584Z" stroke="#EEEEEE" stroke-linecap="round" stroke-linejoin="round"/>
</g>
</svg>
