<svg width="40" height="40" viewBox="0 0 40 40" fill="none" xmlns="http://www.w3.org/2000/svg">
<g id="bi:cart-check">
<g id="Group">
<path id="Vector" d="M8.80002 8C8.58784 8 8.38436 8.08429 8.23432 8.23431C8.08429 8.38434 8 8.58783 8 8.8C8 9.01217 8.08429 9.21566 8.23432 9.36569C8.38436 9.51571 8.58784 9.6 8.80002 9.6H10.5761L11.2177 12.1712L13.6146 24.9472C13.6489 25.1305 13.7462 25.2961 13.8896 25.4153C14.0331 25.5345 14.2137 25.5998 14.4002 25.6H16.0002C15.1515 25.6 14.3376 25.9371 13.7374 26.5373C13.1373 27.1374 12.8001 27.9513 12.8001 28.8C12.8001 29.6487 13.1373 30.4626 13.7374 31.0627C14.3376 31.6629 15.1515 32 16.0002 32C16.849 32 17.6629 31.6629 18.2631 31.0627C18.8632 30.4626 19.2003 29.6487 19.2003 28.8C19.2003 27.9513 18.8632 27.1374 18.2631 26.5373C17.6629 25.9371 16.849 25.6 16.0002 25.6H27.2006C26.3519 25.6 25.5379 25.9371 24.9378 26.5373C24.3376 27.1374 24.0005 27.9513 24.0005 28.8C24.0005 29.6487 24.3376 30.4626 24.9378 31.0627C25.5379 31.6629 26.3519 32 27.2006 32C28.0493 32 28.8633 31.6629 29.4634 31.0627C30.0635 30.4626 30.4007 29.6487 30.4007 28.8C30.4007 27.9513 30.0635 27.1374 29.4634 26.5373C28.8633 25.9371 28.0493 25.6 27.2006 25.6H28.8006C28.9872 25.5998 29.1678 25.5345 29.3112 25.4153C29.4547 25.2961 29.5519 25.1305 29.5863 24.9472L31.9863 12.1472C32.008 12.0317 32.0039 11.9129 31.9744 11.7992C31.9449 11.6855 31.8908 11.5797 31.8158 11.4893C31.7408 11.3989 31.6468 11.3261 31.5405 11.2761C31.4342 11.2261 31.3182 11.2001 31.2007 11.2H12.6241L11.9761 8.6064C11.9329 8.43325 11.8331 8.27952 11.6925 8.16964C11.5519 8.05976 11.3786 8.00005 11.2001 8H8.80002ZM15.0642 24L12.9634 12.8H30.2375L28.1366 24H15.0642ZM17.6003 28.8C17.6003 29.2243 17.4317 29.6313 17.1317 29.9314C16.8316 30.2314 16.4246 30.4 16.0002 30.4C15.5759 30.4 15.1689 30.2314 14.8688 29.9314C14.5688 29.6313 14.4002 29.2243 14.4002 28.8C14.4002 28.3757 14.5688 27.9687 14.8688 27.6686C15.1689 27.3686 15.5759 27.2 16.0002 27.2C16.4246 27.2 16.8316 27.3686 17.1317 27.6686C17.4317 27.9687 17.6003 28.3757 17.6003 28.8ZM28.8006 28.8C28.8006 29.2243 28.6321 29.6313 28.332 29.9314C28.0319 30.2314 27.625 30.4 27.2006 30.4C26.7762 30.4 26.3693 30.2314 26.0692 29.9314C25.7691 29.6313 25.6005 29.2243 25.6005 28.8C25.6005 28.3757 25.7691 27.9687 26.0692 27.6686C26.3693 27.3686 26.7762 27.2 27.2006 27.2C27.625 27.2 28.0319 27.3686 28.332 27.6686C28.6321 27.9687 28.8006 28.3757 28.8006 28.8Z" fill="#F0EDED"/>
</g>
</g>
</svg>
