<svg width="50" height="50" viewBox="0 0 50 50" fill="none" xmlns="http://www.w3.org/2000/svg">
<g id="fa6-solid:arrows-spin">
<path id="Vector" d="M25 9.375C28.75 9.375 32.1973 10.6934 34.8926 12.9004L31.709 16.084C31.2598 16.5332 31.1328 17.207 31.3672 17.7832C31.6016 18.3594 32.1777 18.75 32.8125 18.75H43.75C44.6094 18.75 45.3125 18.0469 45.3125 17.1875V6.25C45.3125 5.61523 44.9316 5.04883 44.3457 4.80469C43.7598 4.56055 43.0859 4.69727 42.6465 5.14648L39.3262 8.4668C35.4883 5.13672 30.4785 3.125 25 3.125C23.9355 3.125 22.9004 3.20312 21.875 3.34961V9.6875C22.8809 9.48242 23.9258 9.375 25 9.375ZM12.9004 15.1074L16.084 18.291C16.5332 18.7402 17.207 18.8672 17.7832 18.6328C18.3594 18.3984 18.75 17.8223 18.75 17.1875V6.25C18.75 5.39062 18.0469 4.6875 17.1875 4.6875H6.25C5.61523 4.6875 5.04883 5.06836 4.80469 5.6543C4.56055 6.24023 4.69727 6.91406 5.14648 7.35352L8.4668 10.6738C5.13672 14.5117 3.125 19.5215 3.125 25C3.125 26.0645 3.20312 27.0996 3.34961 28.125H9.6875C9.48242 27.1191 9.375 26.0742 9.375 25C9.375 21.25 10.6934 17.8027 12.9004 15.1074ZM46.6504 21.875H40.3125C40.5176 22.8809 40.625 23.9258 40.625 25C40.625 28.75 39.3066 32.1973 37.0996 34.8926L33.916 31.709C33.4668 31.2598 32.793 31.1328 32.2168 31.3672C31.6406 31.6016 31.25 32.1777 31.25 32.8125V43.75C31.25 44.6094 31.9531 45.3125 32.8125 45.3125H43.75C44.3848 45.3125 44.9512 44.9316 45.1953 44.3457C45.4395 43.7598 45.3027 43.0859 44.8535 42.6465L41.5332 39.3262C44.8633 35.4883 46.875 30.4785 46.875 25C46.875 23.9355 46.7969 22.9004 46.6504 21.875ZM25 40.625C21.25 40.625 17.8027 39.3066 15.1074 37.0996L18.291 33.916C18.7402 33.4668 18.8672 32.793 18.6328 32.2168C18.3984 31.6406 17.8223 31.25 17.1875 31.25H6.25C5.39062 31.25 4.6875 31.9531 4.6875 32.8125V43.75C4.6875 44.3848 5.06836 44.9512 5.6543 45.1953C6.24023 45.4395 6.91406 45.3027 7.35352 44.8535L10.6738 41.5332C14.5117 44.8633 19.5215 46.875 25 46.875C26.0645 46.875 27.0996 46.7969 28.125 46.6504V40.3125C27.1191 40.5176 26.0742 40.625 25 40.625Z" fill="#4A1D8D"/>
</g>
</svg>
