<svg width="50" height="50" viewBox="0 0 50 50" fill="none" xmlns="http://www.w3.org/2000/svg">
<g id="memory:alpha-x-fill">
<path id="Vector" d="M34.0909 2.27271V4.54543H38.6363V6.81816H40.9091V9.09089H43.1818V11.3636H45.4545V15.9091H47.7272V34.0909H45.4545V38.6363H43.1818V40.9091H40.9091V43.1818H38.6363V45.4545H34.0909V47.7272H15.9091V45.4545H11.3636V43.1818H9.09089V40.9091H6.81816V38.6363H4.54543V34.0909H2.27271V15.9091H4.54543V11.3636H6.81816V9.09089H9.09089V6.81816H11.3636V4.54543H15.9091V2.27271H34.0909ZM29.5454 36.3636H34.0909V29.5454H31.8182V27.2727H29.5454V22.7273H31.8182V20.4545H34.0909V13.6363H29.5454V18.1818H27.2727V20.4545H22.7273V18.1818H20.4545V13.6363H15.9091V20.4545H18.1818V22.7273H20.4545V27.2727H18.1818V29.5454H15.9091V36.3636H20.4545V31.8182H22.7273V29.5454H27.2727V31.8182H29.5454V36.3636Z" fill="#C80C0C"/>
</g>
</svg>
