<svg width="80" height="50" viewBox="0 0 80 50" fill="none" xmlns="http://www.w3.org/2000/svg">
<g id="fontisto:mastercard" clip-path="url(#clip0_768_6248)">
<path id="Vector" d="M74.6667 50H5.33333C3.91885 50 2.56229 49.4732 1.5621 48.5355C0.561903 47.5979 0 46.3261 0 45L0 5C0 3.67392 0.561903 2.40215 1.5621 1.46447C2.56229 0.526784 3.91885 0 5.33333 0L74.6667 0C76.0812 0 77.4377 0.526784 78.4379 1.46447C79.4381 2.40215 80 3.67392 80 5V45C80 46.3261 79.4381 47.5979 78.4379 48.5355C77.4377 49.4732 76.0812 50 74.6667 50ZM63.2978 41.0812H63.2667C62.9626 41.081 62.6618 41.1399 62.3834 41.2543C62.1049 41.3687 61.8548 41.5361 61.6489 41.7458L61.6467 41.7479C61.2088 42.1975 60.9662 42.7843 60.9666 43.3931C60.967 44.0019 61.2104 44.5885 61.6489 45.0375L61.6467 45.0354C62.0511 45.4458 62.6267 45.7021 63.2667 45.7021H63.2978C63.5842 45.7205 63.8687 45.671 64.1293 45.5581C64.3899 45.4453 64.616 45.2727 64.7867 45.0563L64.7889 45.0521V45.6063H65.7956V39.4208H64.7889V41.7333C64.6249 41.5302 64.413 41.3655 64.1697 41.252C63.9264 41.1385 63.6584 41.0793 63.3867 41.0792L63.2933 41.0812H63.2978ZM53.8533 41.0812H53.8022C53.16 41.0812 52.58 41.3312 52.1689 41.7333C51.7304 42.1892 51.4879 42.7813 51.4883 43.3952C51.4887 44.009 51.732 44.6009 52.1711 45.0563L52.1689 45.0542C52.5822 45.4562 53.1622 45.7062 53.8044 45.7062H53.8578L53.9556 45.7083C54.22 45.7086 54.4807 45.6497 54.716 45.5367C54.9514 45.4237 55.1546 45.2597 55.3089 45.0583L55.3133 45.0542V45.6083H56.3578V41.2125H55.3156V41.7333C55.1473 41.5209 54.926 41.3503 54.671 41.2366C54.4161 41.123 54.1354 41.0696 53.8533 41.0812ZM49.3022 41.0812L49.2089 41.0792C48.5547 41.0792 47.9273 41.3228 47.4647 41.7565C47.0021 42.1902 46.7422 42.7784 46.7422 43.3917C46.7422 44.005 47.0021 44.5932 47.4647 45.0268C47.9273 45.4605 48.5547 45.7042 49.2089 45.7042L49.3067 45.7021H49.3022L49.3933 45.7042C49.9933 45.7042 50.5422 45.5083 50.9756 45.1792L50.9711 45.1833L50.4844 44.4021C50.163 44.6405 49.7695 44.7775 49.36 44.7937H49.3556C49.1513 44.806 48.9467 44.7774 48.7551 44.7099C48.5635 44.6423 48.3895 44.5374 48.2444 44.4021C47.9862 44.1214 47.8444 43.763 47.8448 43.3923C47.8452 43.0217 47.9879 42.6635 48.2467 42.3833L48.2444 42.3854C48.3711 42.2615 48.5233 42.1629 48.6917 42.0955C48.8601 42.0282 49.0413 41.9936 49.2244 41.9937H49.2711H49.2689C49.7108 41.9947 50.14 42.1332 50.4889 42.3875L50.4844 42.3833L50.9711 41.6021C50.5119 41.2618 49.9432 41.0775 49.3578 41.0792L49.3022 41.0812ZM40.2356 41.0812H40.18C39.8781 41.0807 39.5794 41.1383 39.3022 41.2505C39.0251 41.3627 38.7755 41.527 38.5689 41.7333C38.3472 41.9575 38.1748 42.2205 38.0616 42.5072C37.9483 42.7939 37.8964 43.0987 37.9089 43.4042V43.4L37.9067 43.4958C37.9067 44.1104 38.1667 44.6687 38.5867 45.0771C39.0089 45.4708 39.5911 45.7125 40.2333 45.7125L40.3089 45.7104H40.3044L40.3956 45.7125C41.0911 45.7125 41.7267 45.4771 42.22 45.0875L42.2156 45.0917L41.7289 44.3771C41.3559 44.687 40.8761 44.8601 40.3778 44.8646C40.0396 44.892 39.7009 44.7963 39.4361 44.5973C39.1712 44.3983 38.9984 44.1112 38.9533 43.7958V43.7896H42.46V43.4C42.4911 42.7849 42.2656 42.1826 41.8311 41.7208L41.8333 41.7229C41.6381 41.52 41.3994 41.3578 41.133 41.2469C40.8665 41.136 40.5782 41.0789 40.2867 41.0792H40.2378L40.2356 41.0812ZM33.3978 41.2125V42.0917H34.3689V44.0792C34.3689 45.1583 34.9178 45.7062 36 45.7062H36.0378C36.4867 45.7062 36.9022 45.5812 37.2511 45.3687L37.2422 45.3729L36.9622 44.5583C36.6866 44.7041 36.3764 44.7829 36.06 44.7875C35.62 44.7875 35.3956 44.5479 35.3956 44.0729V42.0938H37.0622V41.2146H35.3956V39.8812H34.3533V41.2146L33.3978 41.2125ZM29.0267 44.4L28.5756 45.15C29.1244 45.4979 29.8 45.7042 30.5267 45.7042H30.5933H30.5889L30.7356 45.7083C31.2667 45.7083 31.7622 45.5604 32.1778 45.3062L32.1667 45.3125C32.3431 45.1999 32.4875 45.0486 32.5875 44.8718C32.6874 44.695 32.7397 44.498 32.74 44.2979V44.2687C32.74 43.5354 32.1911 43.1042 31.1089 42.9688L30.6244 42.9021C30.0911 42.8167 29.8244 42.6646 29.8244 42.4479C29.8244 42.1229 30.1156 41.9604 30.6933 41.9604H30.7044C31.2489 41.9604 31.76 42.0937 32.2022 42.3271L32.1867 42.3187L32.6044 41.5375C32.0257 41.2148 31.3595 41.0563 30.6867 41.0812H30.6933L30.5733 41.0792C30.1031 41.0785 29.6448 41.2178 29.2644 41.4771L29.2711 41.4729C29.1089 41.5914 28.9776 41.7431 28.8875 41.9164C28.7974 42.0897 28.7507 42.2801 28.7511 42.4729V42.5167V42.5146C28.7511 43.2271 29.3 43.6542 30.3822 43.7833L30.8333 43.85C31.3867 43.9375 31.6667 44.0896 31.6667 44.3062C31.6667 44.6729 31.3111 44.8604 30.5889 44.8604H30.5689C30.0131 44.8616 29.4708 44.6999 29.0178 44.3979L29.0267 44.4042V44.4ZM25.0667 41.0792H25.0111C24.7096 41.0787 24.4112 41.1363 24.1344 41.2485C23.8576 41.3607 23.6084 41.525 23.4022 41.7312C22.9744 42.1923 22.7389 42.783 22.7393 43.3941C22.7397 44.0053 22.976 44.5957 23.4044 45.0563L23.4022 45.0542C23.6088 45.2605 23.8584 45.4248 24.1356 45.537C24.4127 45.6491 24.7115 45.7068 25.0133 45.7062H25.0711C25.3575 45.7205 25.641 45.6689 25.9013 45.556C26.1616 45.4431 26.3885 45.2722 26.5622 45.0583L26.5644 45.0542V45.6083H27.5711V41.2125H26.5644V41.7333C26.3879 41.5294 26.165 41.365 25.9121 41.2521C25.6591 41.1393 25.3824 41.0809 25.1022 41.0812L25.0667 41.0792ZM57.7067 41.2104V45.6063H58.7133V43.1333C58.7133 42.3792 59.0511 41.9958 59.72 41.9958H59.7422C59.9622 41.9958 60.1711 42.0437 60.3556 42.1292L60.3467 42.125L60.6578 41.2125C60.4495 41.1251 60.2237 41.0804 59.9956 41.0812L59.9244 41.0833H59.9289H59.8911C59.6519 41.0832 59.417 41.143 59.2107 41.2565C59.0044 41.3701 58.8342 41.5333 58.7178 41.7292L58.7133 41.7354V41.2146L57.7067 41.2104ZM43.5067 41.2104V45.6063H44.5489V43.1333C44.5489 42.3792 44.8867 41.9958 45.5556 41.9958H45.5778C45.7978 41.9958 46.0067 42.0437 46.1911 42.1292L46.1822 42.125L46.4956 41.2125C46.2779 41.1251 46.0435 41.0804 45.8067 41.0812H45.7644H45.7267C45.4877 41.081 45.2531 41.1408 45.0471 41.2544C44.8412 41.368 44.6715 41.5312 44.5556 41.7271L44.5511 41.7333V41.2125L43.5067 41.2104ZM19.7556 41.9917C20.4467 41.9917 20.7978 42.3854 20.7978 43.1583V45.6H21.84V42.8333L21.8422 42.7646C21.8426 42.3248 21.6609 41.9021 21.3356 41.5854C20.9687 41.2634 20.4847 41.0847 19.9822 41.0854H19.9622C19.6419 41.0661 19.3219 41.1278 19.0357 41.2642C18.7496 41.4005 18.5077 41.6064 18.3356 41.8604L18.3311 41.8667C18.174 41.6122 17.9439 41.4041 17.667 41.266C17.39 41.1279 17.0774 41.0653 16.7644 41.0854H16.7689H16.7489C16.4879 41.0855 16.2307 41.1444 15.9991 41.2572C15.7674 41.37 15.568 41.5333 15.4178 41.7333L15.4133 41.7375V41.2167H14.3756V45.6125H15.4178V43.1667C15.4178 42.3896 15.8044 42 16.5644 42C17.2556 42 17.6067 42.3937 17.6067 43.1667V45.6083H18.6133V43.1667C18.6133 42.3875 19 42 19.7578 42L19.7556 41.9917ZM50.9022 4.16667H50.8289C47.3539 4.16143 43.9579 5.13869 41.0844 6.97083L41.1444 6.93542C44.0457 9.14032 46.1796 12.1063 47.2733 15.4542L47.3089 15.5792C47.8333 17.1313 48.1333 18.9146 48.1333 20.7667C48.1333 22.5979 47.8378 24.3625 47.2911 26.025L47.3267 25.9C46.2599 29.2809 44.1149 32.2747 41.18 34.4792L41.1444 34.5062C44.0259 36.3183 47.4192 37.2818 50.8889 37.2729C53.3778 37.2729 55.7444 36.7875 57.8889 35.9125L57.7756 35.9542C61.9788 34.3035 65.3317 31.184 67.1244 27.2562L67.1667 27.15C68.0556 25.2542 68.5733 23.0437 68.5733 20.7208C68.5733 18.3979 68.0556 16.1875 67.1222 14.1875L67.1667 14.2917C65.404 10.3476 62.0688 7.20443 57.8711 5.53125L57.7578 5.49167C55.6015 4.61473 53.2749 4.16573 50.9244 4.17292H50.9L50.9022 4.16667ZM29.0978 4.16667H29.0733C26.6832 4.16396 24.3185 4.6265 22.1289 5.525L22.24 5.48333C18.0266 7.12623 14.6646 10.2474 12.8711 14.1812L12.8289 14.2875C11.94 16.1833 11.4222 18.3937 11.4222 20.7167C11.4222 23.0396 11.94 25.25 12.8733 27.25L12.8289 27.1458C14.5896 31.0863 17.917 34.2297 22.1067 35.9104L22.22 35.95C24.2511 36.7833 26.62 37.2687 29.1067 37.2687C32.6011 37.2744 36.0171 36.2976 38.9133 34.4646L38.8511 34.5021C35.9343 32.3073 33.7919 29.3382 32.7044 25.9833L32.6711 25.8604C32.1333 24.1997 31.8629 22.473 31.8689 20.7375C31.8661 18.1008 32.4883 15.4964 33.6905 13.1127C34.8926 10.729 36.6447 8.62545 38.82 6.95417L38.8533 6.92917C35.9949 5.11749 32.6214 4.15353 29.1711 4.1625H29.0911H29.0956L29.0978 4.16667ZM40 7.71458C37.1921 9.74912 35.1186 12.5432 34.06 15.7188L34.0267 15.8333C33.4911 17.423 33.2212 19.0808 33.2267 20.7479C33.2267 22.4854 33.5133 24.1583 34.0444 25.7312L34.0111 25.6146C35.0476 28.8236 37.1274 31.6489 39.96 33.6958L40 33.7229C42.821 31.7011 44.9028 28.9079 45.9578 25.7292L45.9911 25.6167C46.5168 24.0409 46.7814 22.3989 46.7756 20.7479C46.7756 18.9917 46.4822 17.3021 45.9422 15.7146L45.9756 15.8312C44.9334 12.6257 42.8613 9.7999 40.0422 7.73958L40.0022 7.7125L40 7.71458ZM63.4356 44.7917H63.3978C63.2126 44.7918 63.0294 44.7557 62.8599 44.6857C62.6904 44.6158 62.5383 44.5135 62.4133 44.3854C62.1543 44.1108 62.0116 43.7568 62.012 43.3902C62.0124 43.0237 62.1559 42.6699 62.4156 42.3958L62.4133 42.3979C62.5459 42.2685 62.7049 42.1655 62.881 42.0951C63.057 42.0248 63.2464 41.9885 63.4378 41.9885C63.6292 41.9885 63.8186 42.0248 63.9946 42.0951C64.1706 42.1655 64.3297 42.2685 64.4622 42.3979C64.7204 42.6753 64.8625 43.0312 64.8621 43.3993C64.8617 43.7675 64.7188 44.1231 64.46 44.4L64.4622 44.3979C64.3347 44.5227 64.1816 44.622 64.012 44.6896C63.8424 44.7573 63.6599 44.792 63.4756 44.7917H63.4356ZM53.9578 44.7917H53.9089C53.7293 44.7917 53.5516 44.7571 53.3869 44.6901C53.2221 44.6231 53.0738 44.5251 52.9511 44.4021C52.7019 44.1171 52.5658 43.7598 52.5663 43.3913C52.5667 43.0228 52.7035 42.6658 52.9533 42.3812L52.9511 42.3833C53.0733 42.2597 53.2215 42.1611 53.3863 42.0937C53.5512 42.0263 53.7291 41.9915 53.9089 41.9917H53.96H53.9978C54.3867 41.9917 54.7378 42.1479 54.98 42.3979C55.2289 42.65 55.38 42.9875 55.38 43.3583V43.4V43.3979L55.3822 43.4542C55.3829 43.8062 55.2462 44.1464 54.9978 44.4104L55 44.4083C54.8743 44.53 54.7237 44.6266 54.5572 44.6925C54.3907 44.7584 54.2118 44.7921 54.0311 44.7917L53.9556 44.7896H53.96L53.9578 44.7917ZM25.2067 44.7917L25.1422 44.7937C24.9597 44.7942 24.7791 44.7597 24.6113 44.6923C24.4436 44.625 24.2923 44.5262 24.1667 44.4021C23.9174 44.1171 23.7814 43.7598 23.7818 43.3913C23.7822 43.0228 23.919 42.6658 24.1689 42.3812L24.1667 42.3833C24.3009 42.2515 24.4639 42.1485 24.6446 42.0812C24.8252 42.014 25.0192 41.9842 25.2133 41.9937H25.2622C25.4432 41.9935 25.6221 42.0297 25.787 42.0998C25.9518 42.1698 26.0987 42.2722 26.2178 42.4L26.22 42.4021C26.4669 42.6845 26.6016 43.0384 26.6012 43.4035C26.6008 43.7686 26.4653 44.1223 26.2178 44.4042L26.22 44.4021C26.097 44.5259 25.9481 44.6247 25.7825 44.6921C25.6169 44.7595 25.4383 44.7941 25.2578 44.7937H25.2089H25.2111L25.2067 44.7917ZM41.4222 43H38.9933C39.0243 42.7183 39.1654 42.4573 39.3895 42.2674C39.6136 42.0775 39.9048 41.9721 40.2069 41.9716C40.509 41.9711 40.8006 42.0754 41.0254 42.2646C41.2502 42.4537 41.3924 42.7142 41.4244 42.9958V43H41.4222Z" fill="#EEEEEE"/>
</g>
<defs>
<clipPath id="clip0_768_6248">
<rect width="80" height="50" fill="white"/>
</clipPath>
</defs>
</svg>
