<svg width="80" height="50" viewBox="0 0 80 50" fill="none" xmlns="http://www.w3.org/2000/svg">
<g id="fontisto:paypal" clip-path="url(#clip0_768_6252)">
<path id="Vector" d="M74.6667 50H5.33333C3.91885 50 2.56229 49.4732 1.5621 48.5355C0.561903 47.5979 0 46.3261 0 45L0 5C0 3.67392 0.561903 2.40215 1.5621 1.46447C2.56229 0.526784 3.91885 0 5.33333 0L74.6667 0C76.0812 0 77.4377 0.526784 78.4379 1.46447C79.4381 2.40215 80 3.67392 80 5V45C80 46.3261 79.4381 47.5979 78.4379 48.5355C77.4377 49.4732 76.0812 50 74.6667 50ZM31.1822 21.5104C31.1214 21.5112 31.0615 21.5247 31.0069 21.5499C30.9523 21.5751 30.9044 21.6115 30.8667 21.6562C30.7791 21.7398 30.729 21.8516 30.7267 21.9688C30.7267 22.0125 30.9444 22.6354 31.4111 23.9125L32.42 26.675L32.8889 27.9625C33.4148 29.4069 33.6896 30.175 33.7133 30.2667C32.6787 31.4675 31.7434 32.7407 30.9156 34.075L30.8311 34.2208L30.8267 34.2729C30.8267 34.4813 31.0067 34.6521 31.2311 34.6521L31.2911 34.6479H31.2889H33.9956C34.1217 34.6472 34.2456 34.6164 34.3557 34.5585C34.4657 34.5005 34.5582 34.4173 34.6244 34.3167L34.6267 34.3146L43.5867 22.1917C43.6338 22.1335 43.6595 22.0626 43.66 21.9896L43.6578 21.9583V21.9604C43.6548 21.8434 43.6048 21.7318 43.5178 21.6479C43.4804 21.6033 43.4329 21.567 43.3787 21.5418C43.3245 21.5166 43.265 21.503 43.2044 21.5021H40.4956C40.3691 21.5028 40.2449 21.5336 40.1345 21.5915C40.0242 21.6495 39.9312 21.7326 39.8644 21.8333L39.8622 21.8354L36.1289 26.9729L34.5844 22.0312C34.5448 21.8807 34.4527 21.7468 34.3226 21.6509C34.1926 21.5551 34.0321 21.5027 33.8667 21.5021L33.8089 21.5042H33.8111L31.1822 21.5104ZM62.2444 21.2792H62.1867C60.5022 21.2792 58.9889 21.9646 57.9445 23.0521L57.94 23.0562C56.7977 24.1638 56.1601 25.6448 56.1622 27.1854V27.2417V27.2396C56.1578 27.3 56.1578 27.3729 56.1578 27.4438C56.1578 28.5625 56.6222 29.5812 57.3778 30.3375L57.3756 30.3354C57.8054 30.7279 58.3169 31.0329 58.8782 31.2315C59.4396 31.4301 60.0386 31.518 60.6378 31.4896H60.6267C61.3756 31.4812 62.0867 31.3375 62.7356 31.0792L62.7 31.0917C63.3556 30.8604 63.9111 30.5 64.3489 30.0417L64.3533 30.0375C64.3311 30.1562 64.3067 30.2562 64.2778 30.3521L64.2822 30.3312C64.2425 30.4588 64.2187 30.5902 64.2111 30.7229V30.7271C64.2111 31.0771 64.3644 31.2542 64.6689 31.2542H67.0933C67.188 31.2621 67.2834 31.2522 67.3739 31.225C67.4645 31.1978 67.5482 31.1539 67.6203 31.0958C67.6924 31.0378 67.7514 30.9667 67.7937 30.8869C67.836 30.8071 67.8608 30.7202 67.8667 30.6312V30.6292L69.3067 22.0312C69.3203 21.9664 69.3179 21.8995 69.2998 21.8356C69.2817 21.7717 69.2484 21.7125 69.2022 21.6625C69.1622 21.6109 69.1098 21.5689 69.0491 21.5399C68.9885 21.5109 68.9214 21.4958 68.8533 21.4958H66.18C65.8533 21.4958 65.6467 21.8604 65.58 22.5833C65.1888 22.1128 64.6744 21.7452 64.0868 21.5163C63.4992 21.2874 62.8583 21.205 62.2267 21.2771L62.2444 21.275V21.2792ZM22.3267 21.2792H22.2644C20.5822 21.2792 19.0689 21.9646 18.0289 23.0521L18.0244 23.0562C16.8821 24.1638 16.2445 25.6448 16.2467 27.1854V27.2417V27.2396C16.2172 27.8059 16.3099 28.3719 16.5191 28.9038C16.7284 29.4357 17.0499 29.9226 17.4644 30.3354L17.4622 30.3333C18.2489 31.05 19.3244 31.4917 20.5111 31.4917L20.7244 31.4875H20.7133C21.4511 31.4771 22.1511 31.3333 22.7889 31.0771L22.7533 31.0896C23.4178 30.8521 23.9822 30.4937 24.4378 30.0375L24.44 30.0354C24.3578 30.2396 24.3067 30.4771 24.3 30.7229V30.7271C24.3 31.0771 24.4556 31.2542 24.7578 31.2542H27.18C27.2747 31.2621 27.3701 31.2522 27.4606 31.225C27.5511 31.1978 27.6349 31.1539 27.707 31.0958C27.7791 31.0378 27.838 30.9667 27.8804 30.8869C27.9227 30.8071 27.9475 30.7202 27.9533 30.6312V30.6292L29.3956 22.0312C29.4077 21.9669 29.4044 21.9008 29.3859 21.8377C29.3675 21.7747 29.3343 21.7162 29.2889 21.6667C29.2489 21.615 29.1964 21.573 29.1358 21.5441C29.0752 21.5151 29.0081 21.5 28.94 21.5H26.2667C25.94 21.5 25.7333 21.8646 25.6689 22.5875C25.2736 22.1207 24.7584 21.7558 24.1714 21.5269C23.5844 21.2981 22.9451 21.2128 22.3133 21.2792L22.3311 21.2771L22.3267 21.2792ZM72.4711 16.6667L72.4356 16.6646C72.3295 16.6642 72.2271 16.7013 72.1489 16.7685C72.0707 16.8357 72.0223 16.928 72.0133 17.0271L69.7289 30.7333C69.7101 30.7993 69.7099 30.8687 69.7282 30.9348C69.7465 31.0008 69.7827 31.0613 69.8333 31.1104C69.8753 31.1571 69.9278 31.1945 69.9869 31.2201C70.046 31.2456 70.1104 31.2587 70.1756 31.2583H72.5089L72.58 31.2625C72.7568 31.2625 72.9264 31.1966 73.0514 31.0794C73.1764 30.9622 73.2467 30.8033 73.2467 30.6375V30.6333L75.5267 17.1646L75.5289 17.1187C75.5287 17 75.4874 16.8844 75.4111 16.7896V16.7917C75.3712 16.7518 75.323 16.7199 75.2695 16.698C75.216 16.6762 75.1583 16.6648 75.1 16.6646L75.0667 16.6667H72.4711ZM46.5378 16.6667C46.4424 16.6549 46.3454 16.6622 46.2532 16.6879C46.161 16.7137 46.0757 16.7574 46.0027 16.8162C45.9297 16.875 45.8708 16.9475 45.8297 17.0291C45.7887 17.1106 45.7664 17.1994 45.7644 17.2896L43.4822 30.7312C43.4705 30.7952 43.4737 30.8607 43.4918 30.9233C43.5098 30.9859 43.5422 31.0441 43.5867 31.0938C43.6259 31.1456 43.6779 31.1878 43.7383 31.2168C43.7986 31.2458 43.8655 31.2608 43.9333 31.2604H46.8333C46.9635 31.2603 47.0895 31.2179 47.19 31.1404C47.2905 31.0629 47.3592 30.9551 47.3844 30.8354V30.8312L48.0178 27.0104C48.0367 26.8431 48.1253 26.6896 48.2644 26.5833C48.4161 26.4685 48.6003 26.3943 48.7933 26.3687H48.8C48.98 26.3375 49.1867 26.3208 49.3978 26.3188C49.5844 26.3188 49.8089 26.3292 50.0667 26.3521C50.3484 26.3825 50.632 26.3964 50.9156 26.3937C52.5437 26.3962 54.1125 25.8209 55.3067 24.7833L55.3022 24.7875C55.8977 24.1955 56.3575 23.4954 56.6533 22.7304C56.9491 21.9655 57.0747 21.1518 57.0222 20.3396V20.3562C57.07 19.8191 56.9718 19.2794 56.7367 18.7875C56.5016 18.2957 56.1372 17.8677 55.6778 17.5437L55.6689 17.5375C54.6085 16.9088 53.3663 16.6039 52.1133 16.6646H52.1267L46.5378 16.6667ZM6.57778 16.6667C6.48482 16.6573 6.3908 16.6664 6.30183 16.6933C6.21286 16.7203 6.13093 16.7644 6.06135 16.823C5.99178 16.8815 5.93611 16.9531 5.89798 17.0332C5.85984 17.1132 5.84009 17.1999 5.84 17.2875V17.2917L3.55556 30.7333C3.54364 30.7972 3.54682 30.8628 3.56486 30.9254C3.58291 30.9881 3.61538 31.0462 3.66 31.0958C3.69926 31.1477 3.75126 31.1899 3.8116 31.2189C3.87195 31.2479 3.93885 31.2629 4.00667 31.2625H6.68222C6.77761 31.2742 6.87457 31.267 6.96676 31.2412C7.05896 31.2155 7.14433 31.1718 7.2173 31.113C7.29027 31.0542 7.34921 30.9817 7.39026 30.9001C7.43131 30.8185 7.45356 30.7298 7.45556 30.6396L8.08889 27.0167C8.10814 26.85 8.1958 26.6968 8.33333 26.5896C8.48496 26.4747 8.6692 26.4006 8.86222 26.375H8.86889C9.06553 26.3425 9.26477 26.3258 9.46444 26.325H9.46667C9.65333 26.325 9.87556 26.3354 10.1333 26.3583C10.4144 26.3886 10.6971 26.4025 10.98 26.4C12.6756 26.4 14.2178 25.7896 15.3733 24.7896L15.3689 24.7937C15.9641 24.2016 16.4238 23.5015 16.7196 22.7366C17.0154 21.9716 17.1411 21.158 17.0889 20.3458V20.3625C17.1367 19.8254 17.0385 19.2856 16.8034 18.7938C16.5682 18.3019 16.2039 17.874 15.7444 17.55L15.7356 17.5437C14.6798 16.9174 13.4435 16.6118 12.1956 16.6688H12.2089L6.57778 16.6667ZM62.0978 28.8229L61.9911 28.825C61.4233 28.8255 60.8737 28.6373 60.44 28.2937L60.4445 28.2958C60.2439 28.1226 60.0839 27.9123 59.9745 27.6781C59.8651 27.444 59.8087 27.1911 59.8089 26.9354L59.8111 26.8417V26.7854C59.8111 26.0063 60.1467 25.3 60.6911 24.7875C61.2267 24.2729 61.9733 23.9542 62.8 23.9542H62.8733H62.8689L62.9445 23.9521C63.5422 23.9521 64.0867 24.1583 64.5044 24.4979L64.5022 24.4958C64.7086 24.675 64.8732 24.8922 64.9856 25.1338C65.098 25.3755 65.1559 25.6364 65.1556 25.9L65.1533 26V25.9958V26.0458C65.1533 26.8146 64.8133 27.5104 64.2645 28.0042C63.9872 28.2631 63.6583 28.4683 63.2964 28.6081C62.9346 28.7479 62.5469 28.8194 62.1556 28.8187H62.1L62.0978 28.8229ZM22.1444 28.8229L22.0333 28.825C21.4511 28.825 20.9156 28.625 20.5067 28.2937L20.5089 28.2958C20.3135 28.1207 20.158 27.9101 20.0518 27.677C19.9456 27.4439 19.891 27.1931 19.8911 26.9396L19.8933 26.8417V26.7854C19.8933 26.0063 20.2289 25.3 20.7733 24.7875C21.3089 24.2729 22.0533 23.9542 22.88 23.9542H22.9578H22.9533L23.0289 23.9521C23.6267 23.9521 24.1711 24.1583 24.5889 24.4979L24.5867 24.4958C24.7925 24.6748 24.9565 24.8918 25.0686 25.1331C25.1806 25.3743 25.2382 25.6348 25.2378 25.8979L25.2356 26V25.9958V26.0687C25.2356 26.8375 24.8956 27.5292 24.3467 28.0229C23.7771 28.5368 23.0172 28.8236 22.2267 28.8229H22.1444ZM48.6044 23.4896L49.2022 19.9667C49.207 19.9148 49.2226 19.8643 49.2482 19.8181C49.2738 19.7719 49.3088 19.7309 49.3514 19.6974C49.3939 19.664 49.443 19.6387 49.496 19.623C49.549 19.6074 49.6047 19.6017 49.66 19.6062H50.2911L50.4267 19.6042C50.8111 19.6042 51.1911 19.6292 51.5622 19.6771L51.52 19.6729C51.8644 19.7312 52.1644 19.8771 52.4 20.0854C52.5342 20.2044 52.6411 20.3478 52.7141 20.5068C52.7871 20.6659 52.8246 20.8373 52.8244 21.0104L52.8222 21.0896V21.0854C52.8689 21.4335 52.8232 21.7869 52.689 22.1144C52.5549 22.4419 52.3365 22.7332 52.0533 22.9625L52.0511 22.9646C51.343 23.3435 50.5311 23.5174 49.7178 23.4646H49.7311L48.6089 23.4979L48.6044 23.4896ZM8.65111 23.4896L9.24889 19.9667C9.25336 19.9147 9.26878 19.8641 9.29428 19.8177C9.31978 19.7714 9.35484 19.7303 9.39743 19.6968C9.44001 19.6632 9.48928 19.638 9.54237 19.6224C9.59545 19.6069 9.6513 19.6014 9.70667 19.6062H10.3711C11.0826 19.5574 11.7948 19.6914 12.4311 19.9937L12.4089 19.9833C12.8289 20.2354 12.9711 20.7708 12.8311 21.5792C12.8204 21.8809 12.7324 22.1759 12.5746 22.4391C12.4168 22.7024 12.1938 22.9262 11.9244 23.0917L11.9178 23.0958C10.8645 23.4594 9.73672 23.5934 8.62 23.4875L8.65111 23.4896Z" fill="#EEEEEE"/>
</g>
<defs>
<clipPath id="clip0_768_6252">
<rect width="80" height="50" fill="white"/>
</clipPath>
</defs>
</svg>
