<svg width="50" height="50" viewBox="0 0 50 50" fill="none" xmlns="http://www.w3.org/2000/svg">
<g id="formkit:visa">
<path id="Vector" d="M45.3125 43.75H4.6875C2.09375 43.75 0 41.6562 0 39.0625V10.9375C0 8.34375 2.09375 6.25 4.6875 6.25H45.3125C47.9062 6.25 50 8.34375 50 10.9375V39.0625C50 41.6562 47.9062 43.75 45.3125 43.75ZM4.6875 9.375C3.8125 9.375 3.125 10.0625 3.125 10.9375V39.0625C3.125 39.9375 3.8125 40.625 4.6875 40.625H45.3125C46.1875 40.625 46.875 39.9375 46.875 39.0625V10.9375C46.875 10.0625 46.1875 9.375 45.3125 9.375H4.6875Z" fill="#EEEEEE"/>
<path id="Vector_2" d="M41.2188 20.0937H38.875C38.1562 20.0937 37.625 20.3125 37.2812 21.0313L32.7812 31.2813H35.9688C35.9688 31.2813 36.5312 29.9063 36.625 29.5938H40.5312C40.6562 29.9688 40.9062 31.25 40.9062 31.25H43.75L41.2188 20.125V20.0937ZM37.5 27.2812C37.7812 26.625 38.7188 24.1563 38.7188 24.1563C38.7188 24.2188 39 23.5 39.0938 23.125L39.3125 24.125L40.0312 27.375H37.5V27.3125V27.2812ZM33 27.5938C33 29.9062 30.9062 31.4375 27.6875 31.4375C26.3125 31.4375 25 31.1562 24.2812 30.8438L24.7188 28.3125L25.0938 28.4687C26.0938 28.9062 26.75 29.0625 27.9375 29.0625C28.8125 29.0625 29.75 28.7188 29.75 27.9688C29.75 27.4688 29.375 27.1563 28.1562 26.5938C27 26.0313 25.4687 25.1563 25.4687 23.5938C25.4687 21.4063 27.5938 19.9062 30.625 19.9062C31.7812 19.9062 32.75 20.125 33.375 20.4063L32.9375 22.8125L32.7188 22.5938C32.1562 22.375 31.4687 22.1563 30.4062 22.1563C29.25 22.2188 28.7187 22.7187 28.7187 23.1562C28.7187 23.6562 29.375 24.0312 30.4062 24.5312C32.1562 25.3438 32.9688 26.2812 32.9688 27.5938H33ZM6.25 20.1875L6.3125 19.9687H11.0312C11.6875 19.9687 12.1875 20.1875 12.3438 20.9063L13.375 25.8438C12.3438 23.2188 9.90625 21.0625 6.25 20.1875Z" fill="#EEEEEE"/>
<path id="Vector_3" d="M20 20.0937L15.2187 31.2188H11.9687L9.21875 21.9063C11.1875 23.1563 12.8438 25.1562 13.4375 26.5L13.7812 27.6563L16.75 20.0312H20V20.0937ZM21.2812 20.0312H24.2812L22.375 31.2188H19.375L21.2812 20.0312Z" fill="#EEEEEE"/>
</g>
</svg>
