<svg width="40" height="40" viewBox="0 0 40 40" fill="none" xmlns="http://www.w3.org/2000/svg">
<g id="game-icons:punch-blast">
<path id="Vector" d="M7.1698 2.03084C14.7901 13.1137 8.16566 12.279 5.12816 13.2188C8.15941 17.353 6.42145 21.2379 1.65137 23.671C5.75293 25.3183 11.2021 26.0501 4.93473 34.7419C11.1518 31.2244 15.4587 30.9278 14.8668 38.8942C19.382 34.3243 25.2607 32.0213 31.121 35.884C30.4524 30.1094 32.11 27.5806 37.9085 30.0715C31.6913 24.3676 34.2604 20.9807 37.9443 17.663C31.5777 17.4104 30.6849 12.546 30.9191 6.7317C27.0767 10.9128 24.1615 10.4626 22.7939 2.28154C20.1529 8.286 16.5959 12.1183 7.16973 2.03076L7.1698 2.03084ZM15.793 10.5732C17.0508 10.601 17.7903 11.5262 18.5013 12.5012L13.8525 20.5532C12.2571 20.7083 11.0939 20.1956 10.5879 18.6686L15.2371 10.6159C15.3801 10.5914 15.5247 10.5771 15.6697 10.5733C15.7108 10.5723 15.7519 10.5723 15.793 10.5732ZM21.1865 11.448C22.4443 11.4754 23.1839 12.4011 23.895 13.3758L18.6678 22.6751C17.0722 22.8301 15.9092 22.3168 15.4033 20.7901L20.6307 11.4909C20.7736 11.4663 20.9182 11.4519 21.0632 11.448C21.1043 11.447 21.1454 11.4469 21.1864 11.4478L21.1865 11.448ZM25.7728 13.9519C27.0307 13.9797 27.7702 14.9048 28.4814 15.8794L23.3294 25.0628C21.7339 25.2175 20.5708 24.705 20.0651 23.1782L25.2167 13.9946C25.3598 13.9701 25.5044 13.9559 25.6495 13.9521C25.6911 13.9511 25.7323 13.9511 25.7729 13.9519L25.7728 13.9519ZM29.3932 18.2669C30.7036 18.2746 31.4828 19.2026 32.2334 20.1798L27.893 27.6976C26.3285 27.7989 25.1699 27.2783 24.6285 25.8128L28.9691 18.2953C29.1096 18.276 29.2513 18.2665 29.3932 18.267L29.3932 18.2669ZM9.96488 21.2276L18.2329 24.9401C18.4684 26.6347 18.0155 27.9704 16.5174 28.7612L8.2491 25.0485C7.89691 23.3596 8.89543 22.2762 9.96473 21.2276H9.96488Z" fill="#F0EDED"/>
</g>
</svg>
