<svg width="40" height="40" viewBox="0 0 40 40" fill="none" xmlns="http://www.w3.org/2000/svg">
<g id="mingcute:chess-fill" clip-path="url(#clip0_280_1000)">
<g id="Group">
<path id="Vector" fill-rule="evenodd" clip-rule="evenodd" d="M11.6667 3.33333H16.6667C20.37 3.33333 26.2617 5.18 28.2483 11.14C29.1567 13.8667 28.785 16.2183 28.4083 18.6083C28.375 18.8083 28.345 19.01 28.3133 19.2117C27.9517 21.5683 27.5967 24.3417 28.105 28.3333H30C30.442 28.3333 30.8659 28.5089 31.1785 28.8215C31.4911 29.134 31.6667 29.558 31.6667 30V35C31.6667 35.442 31.4911 35.866 31.1785 36.1785C30.8659 36.4911 30.442 36.6667 30 36.6667H10C9.55797 36.6667 9.13405 36.4911 8.82148 36.1785C8.50892 35.866 8.33333 35.442 8.33333 35V30C8.33333 29.558 8.50892 29.134 8.82148 28.8215C9.13405 28.5089 9.55797 28.3333 10 28.3333H11.8433C12.23 26.4267 13.3433 23.8033 16.1167 21.0733C16.42 20.7733 16.6 20.4283 16.675 20.0867C14.9131 21.1872 13.0719 22.1554 11.1667 22.9833C10.7108 23.18 10.2064 23.235 9.71887 23.141C9.23139 23.0471 8.78345 22.8086 8.43333 22.4567L5.97166 19.995C5.56273 19.5864 5.30802 19.0488 5.25089 18.4735C5.19376 17.8983 5.33774 17.321 5.65833 16.84L11.41 8.21333L10.1767 5.74667C10.0493 5.49257 9.9891 5.21013 10.0017 4.9262C10.0143 4.64226 10.0993 4.36626 10.2486 4.12443C10.3979 3.88259 10.6065 3.68296 10.8548 3.5445C11.103 3.40603 11.3824 3.33334 11.6667 3.33333ZM15 15C15.442 15 15.8659 14.8244 16.1785 14.5118C16.4911 14.1993 16.6667 13.7754 16.6667 13.3333C16.6667 12.8913 16.4911 12.4674 16.1785 12.1548C15.8659 11.8423 15.442 11.6667 15 11.6667C14.558 11.6667 14.134 11.8423 13.8215 12.1548C13.5089 12.4674 13.3333 12.8913 13.3333 13.3333C13.3333 13.7754 13.5089 14.1993 13.8215 14.5118C14.134 14.8244 14.558 15 15 15Z" fill="#F0EDED"/>
</g>
</g>
<defs>
<clipPath id="clip0_280_1000">
<rect width="40" height="40" fill="white"/>
</clipPath>
</defs>
</svg>
