<svg width="40" height="40" viewBox="0 0 40 40" fill="none" xmlns="http://www.w3.org/2000/svg">
<g id="fluent-emoji-high-contrast:bat">
<path id="Vector" d="M24.2325 11.9813L33.35 2.75001L33.4075 2.68501C33.5212 2.55376 33.7037 2.34251 33.8987 2.44876C34.1887 2.60751 34.105 2.91376 33.985 3.11501C32.9 4.93501 32.8425 9.21001 37.0062 10.0313C37.185 10.0725 37.3512 10.3763 37.075 10.6525C35.7625 11.965 33.36 16.2463 37.4062 19.4913C37.5487 19.57 37.7137 19.7813 37.2275 20.0025L37.0762 20.065C36.0925 20.4638 32.1637 22.0525 33.5387 28.385L33.2987 28.145C34.0762 29.5825 34.1862 31.025 32.8612 32.35L32.8062 32.4L32.7575 32.445C31.955 33.1825 30.655 34.3788 28.4612 33.3188C22.2287 32.0188 20.6562 35.9038 20.2612 36.8813L20.1987 37.0313C19.9762 37.5188 19.765 37.3538 19.6862 37.2113C16.4412 33.165 12.16 35.5675 10.8487 36.88C10.5725 37.155 10.2687 36.99 10.2275 36.81C9.40497 32.6475 5.12997 32.7038 3.31122 33.79C3.10872 33.91 2.80247 33.9938 2.64497 33.7025C2.53747 33.5088 2.74872 33.3263 2.87997 33.2125C2.90497 33.19 2.92872 33.1713 2.94497 33.1538L12.175 24.0363C12.175 24.0363 12.7612 23.4488 13.5275 24.0638C16.215 26.2188 18.235 26.4588 19.48 26.125C18.3575 24.975 16.7637 23.4063 15.805 22.465L15.0737 21.7425C14.6862 21.3563 14.8662 20.955 15.765 21.0525L19.3687 21.3425C19.8887 20.6025 21.0687 19.5525 21.5925 19.1188L21.205 15.6113C21.0262 14.7413 21.44 14.575 21.8412 14.9763L26.2812 19.4163C26.6687 18.185 26.4912 16.1163 24.2587 13.3313C23.645 12.5663 24.2312 11.98 24.2312 11.98L24.2325 11.9813ZM23.6725 23.5738C23.3062 23.94 23.2725 25.3288 23.8312 25.8875C24.0237 26.0813 24.425 26.26 25.3912 25.2938C26.3587 24.3275 26.3237 23.9338 26.0537 23.6638C25.6337 23.2425 24.1412 23.105 23.6725 23.5738ZM22.4225 23.8713C22.3648 23.8116 22.2958 23.764 22.2196 23.7312C22.1433 23.6984 22.0613 23.6812 21.9783 23.6805C21.8954 23.6798 21.8131 23.6956 21.7362 23.727C21.6594 23.7584 21.5897 23.8048 21.531 23.8635C21.4723 23.9222 21.4259 23.992 21.3945 24.0688C21.363 24.1456 21.3472 24.2279 21.3479 24.3109C21.3487 24.3939 21.3659 24.4759 21.3987 24.5521C21.4314 24.6284 21.479 24.6974 21.5387 24.755C21.6566 24.8689 21.8145 24.9319 21.9783 24.9304C22.1422 24.929 22.299 24.8633 22.4149 24.7474C22.5307 24.6315 22.5965 24.4748 22.5979 24.3109C22.5993 24.147 22.5363 23.9891 22.4225 23.8713ZM24.895 22.2838C24.9531 22.2257 24.9992 22.1567 25.0306 22.0807C25.0621 22.0048 25.0783 21.9234 25.0783 21.8413C25.0783 21.7591 25.0621 21.6777 25.0306 21.6018C24.9992 21.5259 24.9531 21.4569 24.895 21.3988C24.8369 21.3407 24.7679 21.2946 24.6919 21.2631C24.616 21.2317 24.5346 21.2155 24.4525 21.2155C24.3703 21.2155 24.2889 21.2317 24.213 21.2631C24.1371 21.2946 24.0681 21.3407 24.01 21.3988C23.8928 21.5161 23.827 21.6752 23.8271 21.8411C23.8272 22.0069 23.8932 22.1659 24.0106 22.2831C24.128 22.4003 24.2871 22.4661 24.4529 22.466C24.6188 22.4659 24.7778 22.4011 24.895 22.2838Z" fill="#F0EDED"/>
</g>
</svg>
