<svg width="40" height="40" viewBox="0 0 40 40" fill="none" xmlns="http://www.w3.org/2000/svg">
<g id="fa-solid:user-friends">
<path id="Vector" d="M12.8 20C16.2819 20 19.1 16.0859 19.1 11.25C19.1 6.41406 16.2819 2.5 12.8 2.5C9.31812 2.5 6.5 6.41406 6.5 11.25C6.5 16.0859 9.31812 20 12.8 20ZM17.12 22.5H16.6531C15.4831 23.2812 14.1838 23.75 12.8 23.75C11.4162 23.75 10.1225 23.2812 8.94687 22.5H8.48C4.9025 22.5 2 26.5313 2 31.5V33.75C2 35.8203 3.20938 37.5 4.7 37.5H20.9C22.3906 37.5 23.6 35.8203 23.6 33.75V31.5C23.6 26.5313 20.6975 22.5 17.12 22.5ZM29 20C31.9812 20 34.4 16.6406 34.4 12.5C34.4 8.35938 31.9812 5 29 5C26.0187 5 23.6 8.35938 23.6 12.5C23.6 16.6406 26.0187 20 29 20ZM31.7 22.5H31.4862C30.7044 22.875 29.8775 23.125 29 23.125C28.1225 23.125 27.2956 22.875 26.5137 22.5H26.3C25.1525 22.5 24.095 22.9609 23.1669 23.7031C24.5394 25.7578 25.4 28.4844 25.4 31.5V34.5C25.4 34.6719 25.3719 34.8359 25.3662 35H35.3C36.7906 35 38 33.3203 38 31.25C38 26.4141 35.1819 22.5 31.7 22.5Z" fill="#F0EDED"/>
</g>
</svg>
