<svg width="40" height="40" viewBox="0 0 40 40" fill="none" xmlns="http://www.w3.org/2000/svg">
<g id="eos-icons:compass">
<path id="Vector" d="M20 18.1667C18.9834 18.1667 18.1667 18.9834 18.1667 20C18.1667 21.0167 18.9834 21.8334 20 21.8334C21.0167 21.8334 21.8334 21.0167 21.8334 20C21.8334 18.9834 21.0167 18.1667 20 18.1667ZM20 3.33337C10.8 3.33337 3.33337 10.8 3.33337 20C3.33337 29.2 10.8 36.6667 20 36.6667C29.2 36.6667 36.6667 29.2 36.6667 20C36.6667 10.8 29.2 3.33337 20 3.33337ZM23.65 23.65L10 30L16.35 16.35L30 10L23.65 23.65Z" fill="#F0EDED"/>
</g>
</svg>
