<svg width="50" height="50" viewBox="0 0 50 50" fill="none" xmlns="http://www.w3.org/2000/svg">
<g id="logos:facebook" clip-path="url(#clip0_681_6507)">
<path id="Vector" d="M50 25C50 11.193 38.807 0 25 0C11.193 0 0 11.1928 0 25C0 37.4781 9.14219 47.8209 21.0938 49.6963V32.2266H14.7461V25H21.0938V19.4922C21.0938 13.2266 24.8262 9.76563 30.5365 9.76563C33.2719 9.76563 36.1328 10.2539 36.1328 10.2539V16.4063H32.9805C29.8746 16.4063 28.9062 18.3334 28.9062 20.3105V25H35.8398L34.7314 32.2266H28.9062V49.6963C40.8578 47.8209 50 37.4783 50 25Z" fill="#1877F2"/>
<path id="Vector_2" d="M34.7314 32.1182L35.8398 24.8916H28.9062V20.2021C28.9062 18.2248 29.8748 16.2979 32.9805 16.2979H36.1328V10.1455C36.1328 10.1455 33.2719 9.65723 30.5365 9.65723C24.8262 9.65723 21.0938 13.1182 21.0938 19.3838V24.8916H14.7461V32.1182H21.0938V49.5879C22.386 49.7904 23.692 49.8919 25 49.8916C26.308 49.892 27.614 49.7904 28.9062 49.5879V32.1182H34.7314Z" fill="white"/>
</g>
<defs>
<clipPath id="clip0_681_6507">
<rect width="50" height="50" fill="white"/>
</clipPath>
</defs>
</svg>
