<svg width="50" height="50" viewBox="0 0 50 50" fill="none" xmlns="http://www.w3.org/2000/svg">
<g id="logos:google-gmail" clip-path="url(#clip0_681_6497)">
<path id="Vector" d="M11.3637 49.7538V24.1295L5.37246 16.8593L0 12.8248V45.2318C0 47.7339 1.52832 49.7538 3.40918 49.7538H11.3637Z" fill="#4285F4"/>
<path id="Vector_2" d="M38.6367 49.754H46.5912C48.4777 49.754 50.0004 47.7265 50.0004 45.2319V12.8252L43.9152 17.4462L38.6367 24.1296V49.754Z" fill="#34A853"/>
<path id="Vector_3" d="M11.3641 24.1295L10.5488 14.1173L11.3641 4.53467L25.0004 18.1005L38.6367 4.53467L39.5486 13.6L38.6367 24.1295L25.0004 37.6953L11.3641 24.1295Z" fill="#EA4335"/>
<path id="Vector_4" d="M38.6367 4.53464V24.1295L50.0004 12.8248V6.79552C50.0004 1.20355 45.1879 -1.98428 41.8188 1.36935L38.6367 4.53464Z" fill="#FBBC04"/>
<path id="Vector_5" d="M0 12.8249L5.22637 18.0244L11.3637 24.1296V4.53475L8.18164 1.36947C4.80664 -1.98442 0 1.20367 0 6.79538V12.8246V12.8249Z" fill="#C5221F"/>
</g>
<defs>
<clipPath id="clip0_681_6497">
<rect width="50" height="50" fill="white"/>
</clipPath>
</defs>
</svg>
