<svg width="40" height="40" viewBox="0 0 40 40" fill="none" xmlns="http://www.w3.org/2000/svg">
<path id="Vector" opacity="0.7" d="M39.5499 37.3776L29.9398 27.7702C32.7307 24.424 34.1236 20.1309 33.8289 15.7841C33.5342 11.4373 31.5745 7.37143 28.3575 4.43233C25.1404 1.49323 20.9138 -0.0927957 16.5568 0.0042005C12.1999 0.101197 8.04807 1.87375 4.96511 4.9531C1.88214 8.03245 0.105416 12.1815 0.00454184 16.5371C-0.0963328 20.8927 1.48641 25.1196 4.42351 28.3383C7.36061 31.557 11.4259 33.5197 15.7737 33.8182C20.1215 34.1167 24.4171 32.7279 27.7667 29.9408L37.3768 39.5501C37.5195 39.6927 37.6889 39.8059 37.8753 39.8831C38.0618 39.9603 38.2616 40 38.4634 40C38.6652 40 38.865 39.9603 39.0514 39.8831C39.2378 39.8059 39.4072 39.6927 39.5499 39.5501C39.6926 39.4074 39.8058 39.2381 39.883 39.0517C39.9603 38.8653 40 38.6655 40 38.4638C40 38.2621 39.9603 38.0623 39.883 37.8759C39.8058 37.6896 39.6926 37.5202 39.5499 37.3776ZM3.14054 16.9691C3.14054 14.2362 3.95118 11.5646 5.46996 9.29226C6.98874 7.0199 9.14744 5.24881 11.6731 4.20296C14.1987 3.15711 16.9778 2.88347 19.659 3.41664C22.3402 3.94981 24.8031 5.26585 26.7361 7.19833C28.6692 9.13081 29.9856 11.5929 30.5189 14.2734C31.0522 16.9538 30.7785 19.7321 29.7324 22.2571C28.6862 24.782 26.9146 26.94 24.6416 28.4584C22.3686 29.9767 19.6962 30.7871 16.9625 30.7871C13.2979 30.7831 9.78463 29.326 7.19339 26.7355C4.60215 24.145 3.1446 20.6327 3.14054 16.9691Z" fill="black"/>
</svg>
