<svg width="16" height="17" viewBox="0 0 16 17" fill="none" xmlns="http://www.w3.org/2000/svg">
<g id="mdi:like">
<path id="Vector" d="M15.3337 6.90689C15.3337 6.54052 15.1932 6.18917 14.9431 5.93011C14.6931 5.67105 14.3539 5.52551 14.0003 5.52551H9.78699L10.427 2.36905C10.4403 2.29998 10.447 2.22401 10.447 2.14803C10.447 1.86485 10.3337 1.60239 10.1537 1.4159L9.44699 0.690674L5.06033 5.23542C4.81366 5.49097 4.66699 5.83632 4.66699 6.2162V13.1231C4.66699 13.4895 4.80747 13.8408 5.05752 14.0999C5.30757 14.3589 5.6467 14.5045 6.00033 14.5045H12.0003C12.5537 14.5045 13.027 14.1591 13.227 13.6618L15.2403 8.79247C15.3003 8.63362 15.3337 8.46785 15.3337 8.28827V6.90689ZM0.666992 14.5045H3.33366V6.2162H0.666992V14.5045Z" fill="#EEEEEE"/>
</g>
</svg>
