<svg width="50" height="50" viewBox="0 0 50 50" fill="none" xmlns="http://www.w3.org/2000/svg">
<g id="mdi:bitcoin">
<path id="Vector" d="M29.667 22C29.0212 24.5833 25.0003 23.2708 23.7503 22.9166L24.8962 18.375C26.1878 18.75 30.3337 19.2916 29.667 22ZM23.1878 25.25L21.9378 30.2708C23.4795 30.6666 28.2503 32.1875 28.9587 29.3541C29.7087 26.3958 24.7295 25.625 23.1878 25.25ZM45.2087 30.0416C42.417 41.2083 31.1253 48 19.9587 45.2083C8.79199 42.4166 2.00658 31.125 4.79199 19.9583C5.45375 17.3043 6.63185 14.8067 8.25901 12.6081C9.88618 10.4095 11.9305 8.55295 14.2753 7.14454C16.6201 5.73613 19.2193 4.80344 21.9246 4.39972C24.6299 3.996 27.3882 4.12918 30.042 4.79163C41.1878 7.5833 47.9795 18.875 45.2087 30.0416ZM29.6045 16.7708L30.542 13.0208L28.2503 12.5L27.3337 16.1041C26.7295 15.9583 26.1253 15.8125 25.5003 15.6875L26.417 12L24.1462 11.4583L23.2087 15.1875C22.7087 15.0625 22.2087 14.9583 21.7503 14.8333L18.6045 14.0416L17.9795 16.4791C17.9795 16.4791 19.6878 16.875 19.6462 16.8958C20.5837 17.125 20.7503 17.7083 20.7087 18.2291L18.1462 28.5C18.042 28.7916 17.7087 29.1666 17.1045 29.0625C17.1253 29.0833 15.4378 28.6458 15.4378 28.6458L14.3128 31.25L17.2712 32C17.8337 32.1458 18.3753 32.2916 18.917 32.4166L17.9587 36.2083L20.2503 36.7916L21.1878 33.0208C21.8128 33.1875 22.417 33.3333 23.0003 33.5L22.0628 37.2291L24.3545 37.8125L25.3128 34.0208C29.167 34.75 32.1253 34.4583 33.3337 30.9375C34.3753 28.125 33.3337 26.4583 31.2503 25.3958C32.7503 25 33.8753 24.0625 34.1878 22.0208C34.6045 19.25 32.4795 17.7708 29.6045 16.7708Z" fill="#EEEEEE"/>
</g>
</svg>
