<svg width="16" height="17" viewBox="0 0 16 17" fill="none" xmlns="http://www.w3.org/2000/svg">
<g id="mdi:dislike">
<path id="Vector" d="M12.667 10.3603H15.3337V2.07202H12.667M10.0003 2.07202H4.00033C3.44699 2.07202 2.97366 2.41737 2.77366 2.91466L0.760326 7.78403C0.700326 7.94289 0.666992 8.10866 0.666992 8.28824V9.66962C0.666992 10.036 0.807468 10.3873 1.05752 10.6464C1.30757 10.9055 1.6467 11.051 2.00033 11.051H6.20699L5.57366 14.2075C5.56033 14.2765 5.55366 14.3456 5.55366 14.4216C5.55366 14.7117 5.66699 14.9672 5.84699 15.1537L6.55366 15.8858L10.9403 11.3342C11.187 11.0855 11.3337 10.7402 11.3337 10.3603V3.4534C11.3337 3.08704 11.1932 2.73568 10.9431 2.47662C10.6931 2.21756 10.3539 2.07202 10.0003 2.07202Z" fill="#EEEEEE"/>
</g>
</svg>
