<svg width="40" height="40" viewBox="0 0 40 40" fill="none" xmlns="http://www.w3.org/2000/svg">
<g id="mdi:account-arrow-right">
<path id="Vector" d="M30 26.6667H23.3333V30H30V33.3334L35 28.3334L30 23.3334V26.6667ZM18.3333 6.66669C14.6667 6.66669 11.6667 9.66669 11.6667 13.3334C11.6667 17 14.6667 20 18.3333 20C22 20 25 17 25 13.3334C25 9.66669 22 6.66669 18.3333 6.66669ZM18.3333 23.3334C11 23.3334 5 26.3334 5 30V33.3334H20.8333C20.3333 32 20 30.6667 20 29.1667C20 27.1667 20.5 25.3334 21.5 23.5C20.5 23.5 19.5 23.3334 18.3333 23.3334Z" fill="#EEEEEE"/>
</g>
</svg>
