<svg width="40" height="50" viewBox="0 0 40 50" fill="none" xmlns="http://www.w3.org/2000/svg">
<g id="noto:information">
<path id="Vector" d="M36.3936 1.54688H3.89355C2.5123 1.54688 1.39355 2.94531 1.39355 4.67188V45.2969C1.39355 47.0234 2.5123 48.4219 3.89355 48.4219H36.3936C37.7748 48.4219 38.8936 47.0234 38.8936 45.2969V4.67188C38.8936 2.94531 37.7748 1.54688 36.3936 1.54688Z" fill="#427687"/>
<path id="Vector_2" d="M34.4248 1.54688H3.73731C3.1171 1.5525 2.52357 1.86297 2.085 2.41118C1.64644 2.95938 1.39806 3.7013 1.39356 4.47656V42.7187C1.39044 44.3359 2.43731 45.6445 3.73106 45.6484H34.3936C35.6873 45.6523 36.7342 44.3437 36.7373 42.7266V4.47656C36.7654 2.89453 35.7592 1.58203 34.4936 1.54688H34.4248Z" fill="#8CAFBF"/>
<path id="Vector_3" d="M21.1748 42.5625H17.4561C17.258 42.5592 17.0688 42.4593 16.9287 42.2842C16.7886 42.1091 16.7087 41.8726 16.7061 41.625V19.4375C16.7087 19.1899 16.7886 18.9534 16.9287 18.7783C17.0688 18.6032 17.258 18.5033 17.4561 18.5H21.1436C21.5561 18.5078 21.8873 18.9219 21.8936 19.4375V41.625C21.9029 42.1328 21.5811 42.5508 21.1748 42.5625Z" fill="white"/>
<path id="Vector_4" d="M19.2998 15.7656C21.1465 15.7656 22.6436 13.8943 22.6436 11.5859C22.6436 9.27756 21.1465 7.40625 19.2998 7.40625C17.4531 7.40625 15.9561 9.27756 15.9561 11.5859C15.9561 13.8943 17.4531 15.7656 19.2998 15.7656Z" fill="white"/>
<path id="Vector_5" opacity="0.5" d="M12.5498 5.02343C12.5498 4.12499 12.0498 3.85155 9.1748 3.96874C6.76855 4.08593 5.58105 4.43749 4.8623 5.53124C4.14355 6.62499 3.95605 8.85155 3.9248 11.5078C3.9248 13.3828 3.9248 15.1406 4.70605 15.1406C5.76855 15.1406 5.76855 12.0547 6.64355 10.3359C8.33105 6.93749 12.5498 6.1953 12.5498 5.02343Z" fill="#B4E1ED"/>
</g>
</svg>
