<svg width="70" height="51" viewBox="0 0 70 51" fill="none" xmlns="http://www.w3.org/2000/svg">
<path d="M30.3333 10.6667L29 3.33341L32.6667 6.66675L35 2.66675L37.3333 6.66675L41 3.33341L39.6667 10.6667H30.3333ZM39.6667 12.6667C39.6667 13.0667 39.4 13.3334 39 13.3334H31C30.6 13.3334 30.3333 13.0667 30.3333 12.6667V12.0001H39.6667V12.6667Z" fill="#F5AA00"/>
<g clip-path="url(#clip0_768_6225)">
<path d="M10.8311 13.6362C11.0204 19.111 17.0314 19.0843 20.5714 21.8283C18.2806 20.8363 14.5259 21.0543 11.8079 19.2914C13.0758 23.4116 17.5982 22.0551 20.9193 23.1751C18.9414 22.982 16.3328 24.0987 13.8669 23.2154C16.0445 26.6477 18.8692 24.3551 21.6059 24.3753C20.2256 24.727 18.8004 26.2656 16.8946 26.1213C19.2169 28.3565 20.433 26.1859 22.0966 25.354C22.0945 25.3565 22.0922 25.3589 22.0901 25.3614C22.1566 25.3265 22.2275 25.3006 22.3008 25.2845C22.3564 25.2721 22.4131 25.2653 22.4701 25.2643C22.8615 25.2583 23.2165 25.5282 23.3042 25.9254C23.3416 26.0941 23.3259 26.2703 23.2593 26.4298C23.257 26.412 23.2539 26.3943 23.2501 26.3767C23.1716 26.0206 22.819 25.7955 22.4628 25.8741C22.1067 25.9527 21.8816 26.3053 21.9602 26.6614C21.9711 26.7098 21.9873 26.7568 22.0087 26.8015C22.0033 26.7978 21.9976 26.7943 21.9923 26.7905C22.0086 26.8169 22.0262 26.8424 22.0444 26.8674C22.0796 26.924 22.1231 26.9749 22.1735 27.0185C22.3823 27.2247 22.6656 27.3568 22.982 27.3709C23.6596 27.4011 24.2335 26.8758 24.2637 26.1981C24.2882 25.6475 23.9469 25.1654 23.4544 24.9878C23.4541 24.9877 23.4537 24.9879 23.4535 24.9878C23.1728 24.8312 22.9277 24.641 22.7211 24.4293C23.191 24.6393 23.7618 24.537 24.1282 24.1364C24.586 23.6359 24.5518 22.8593 24.0513 22.4014C23.7661 22.1406 23.3915 22.0399 23.0369 22.0938C22.9432 22.0991 22.8497 22.1267 22.765 22.1808C22.5017 22.3489 22.4248 22.6985 22.5929 22.9617C22.7609 23.2251 23.1105 23.3019 23.3738 23.1339C23.5128 23.0452 23.599 22.9063 23.6256 22.7558C23.6987 23.0903 23.5622 23.4497 23.2566 23.6448C22.8648 23.8949 22.344 23.7802 22.0939 23.3884C22.0169 23.2678 21.9721 23.1294 21.9639 22.9865C21.9638 22.9856 21.963 22.9847 21.963 22.9838C21.9528 22.9216 21.9454 22.859 21.941 22.7961C21.6503 18.4936 14.4803 17.9329 10.8311 13.6363L10.8311 13.6362Z" fill="#F5AA00"/>
</g>
<path d="M44.986 20.7401C44.9837 20.7107 44.9811 20.6813 44.978 20.6521C44.8893 19.3912 44.3267 18.2107 43.4033 17.3477C42.4798 16.4847 41.2639 16.0033 40 16.0001H30C28.7183 15.9943 27.484 16.4838 26.5547 17.3665C25.6254 18.2492 25.0731 19.4568 25.013 20.7371C25.003 20.8161 25 20.8981 25 20.9901V27.5001C25 28.4251 25.373 29.3281 26.022 29.9761C26.6808 30.6306 27.5713 30.9986 28.5 31.0001C30.3 31.0001 31.004 30.0001 32 28.0001C32.146 27.7081 32.992 26.0001 35 26.0001C36.996 26.0001 37.853 27.7071 38 28.0001C39.004 30.0001 39.7 31.0001 41.5 31.0001C42.425 31.0001 43.328 30.6271 43.976 29.9781C44.6305 29.3192 44.9985 28.4287 45 27.5001V21.0001C45 20.9051 44.996 20.8201 44.986 20.7401ZM30 23.0311C29.7337 23.0371 29.4688 22.9898 29.221 22.8921C28.9731 22.7943 28.7473 22.6481 28.5568 22.4618C28.3663 22.2756 28.2149 22.0532 28.1115 21.8077C28.0081 21.5622 27.9549 21.2985 27.9548 21.0321C27.9547 20.7657 28.0079 20.5019 28.1111 20.2563C28.2144 20.0108 28.3657 19.7883 28.5561 19.602C28.7465 19.4157 28.9723 19.2693 29.22 19.1714C29.4678 19.0735 29.7327 19.0262 29.999 19.0321C30.5216 19.0436 31.0188 19.2593 31.3844 19.6329C31.7499 20.0065 31.9547 20.5084 31.9548 21.0311C31.9549 21.5538 31.7504 22.0557 31.3851 22.4295C31.0197 22.8033 30.5226 23.0192 30 23.0311ZM40 18.0311C40.2652 18.0311 40.5196 18.1364 40.7071 18.3239C40.8946 18.5115 41 18.7658 41 19.0311C41 19.2963 40.8946 19.5506 40.7071 19.7382C40.5196 19.9257 40.2652 20.0311 40 20.0311C39.7348 20.0311 39.4804 19.9257 39.2929 19.7382C39.1054 19.5506 39 19.2963 39 19.0311C39 18.7658 39.1054 18.5115 39.2929 18.3239C39.4804 18.1364 39.7348 18.0311 40 18.0311ZM38 22.0311C37.7348 22.0311 37.4804 21.9257 37.2929 21.7382C37.1054 21.5506 37 21.2963 37 21.0311C37 20.7658 37.1054 20.5115 37.2929 20.3239C37.4804 20.1364 37.7348 20.0311 38 20.0311C38.2652 20.0311 38.5196 20.1364 38.7071 20.3239C38.8946 20.5115 39 20.7658 39 21.0311C39 21.2963 38.8946 21.5506 38.7071 21.7382C38.5196 21.9257 38.2652 22.0311 38 22.0311ZM40 24.0311C39.7348 24.0311 39.4804 23.9257 39.2929 23.7382C39.1054 23.5506 39 23.2963 39 23.0311C39 22.7658 39.1054 22.5115 39.2929 22.3239C39.4804 22.1364 39.7348 22.0311 40 22.0311C40.2652 22.0311 40.5196 22.1364 40.7071 22.3239C40.8946 22.5115 41 22.7658 41 23.0311C41 23.2963 40.8946 23.5506 40.7071 23.7382C40.5196 23.9257 40.2652 24.0311 40 24.0311ZM42 22.0311C41.7348 22.0311 41.4804 21.9257 41.2929 21.7382C41.1054 21.5506 41 21.2963 41 21.0311C41 20.7658 41.1054 20.5115 41.2929 20.3239C41.4804 20.1364 41.7348 20.0311 42 20.0311C42.2652 20.0311 42.5196 20.1364 42.7071 20.3239C42.8946 20.5115 43 20.7658 43 21.0311C43 21.2963 42.8946 21.5506 42.7071 21.7382C42.5196 21.9257 42.2652 22.0311 42 22.0311Z" fill="#F5AA00"/>
<g clip-path="url(#clip1_768_6225)">
<path d="M59.1689 13.6362C58.9796 19.111 52.9686 19.0843 49.4286 21.8283C51.7194 20.8363 55.4741 21.0543 58.1921 19.2914C56.9242 23.4116 52.4018 22.0551 49.0807 23.1751C51.0586 22.982 53.6672 24.0987 56.1331 23.2154C53.9555 26.6477 51.1308 24.3551 48.3941 24.3753C49.7744 24.727 51.1996 26.2656 53.1054 26.1213C50.7831 28.3565 49.567 26.1859 47.9034 25.354C47.9055 25.3565 47.9078 25.3589 47.9099 25.3614C47.8434 25.3265 47.7725 25.3006 47.6992 25.2845C47.6436 25.2721 47.5869 25.2653 47.5299 25.2643C47.1385 25.2583 46.7835 25.5282 46.6958 25.9254C46.6584 26.0941 46.6741 26.2703 46.7407 26.4298C46.743 26.412 46.7461 26.3943 46.7499 26.3767C46.8284 26.0206 47.181 25.7955 47.5372 25.8741C47.8933 25.9527 48.1184 26.3053 48.0398 26.6614C48.0289 26.7098 48.0127 26.7568 47.9913 26.8015C47.9967 26.7978 48.0024 26.7943 48.0077 26.7905C47.9914 26.8169 47.9738 26.8424 47.9556 26.8674C47.9204 26.924 47.8769 26.9749 47.8265 27.0185C47.6177 27.2247 47.3344 27.3568 47.018 27.3709C46.3404 27.4011 45.7665 26.8758 45.7363 26.1981C45.7118 25.6475 46.0531 25.1654 46.5456 24.9878C46.5459 24.9877 46.5463 24.9879 46.5465 24.9878C46.8272 24.8312 47.0723 24.641 47.2789 24.4293C46.809 24.6393 46.2382 24.537 45.8718 24.1364C45.414 23.6359 45.4482 22.8593 45.9487 22.4014C46.2339 22.1406 46.6085 22.0399 46.9631 22.0938C47.0568 22.0991 47.1503 22.1267 47.235 22.1808C47.4983 22.3489 47.5752 22.6985 47.4071 22.9617C47.2391 23.2251 46.8895 23.3019 46.6262 23.1339C46.4872 23.0452 46.401 22.9063 46.3744 22.7558C46.3013 23.0903 46.4378 23.4497 46.7434 23.6448C47.1352 23.8949 47.656 23.7802 47.9061 23.3884C47.9831 23.2678 48.0279 23.1294 48.0361 22.9865C48.0362 22.9856 48.037 22.9847 48.037 22.9838C48.0472 22.9216 48.0546 22.859 48.059 22.7961C48.3497 18.4936 55.5197 17.9329 59.1689 13.6363L59.1689 13.6362Z" fill="#F5AA00"/>
</g>
<path d="M7.21744 47.196C7.21744 47.2333 7.17544 47.2567 7.09144 47.266C6.84877 47.238 6.68544 47.168 6.60144 47.056C6.30277 46.3467 6.0881 45.726 5.95744 45.194C5.6681 45.9127 5.29477 46.468 4.83744 46.86C4.3801 47.252 3.8761 47.448 3.32544 47.448C2.5041 47.448 1.8601 47.084 1.39344 46.356C0.926771 45.628 0.693438 44.6667 0.693438 43.472C0.693438 42.4453 0.959438 41.484 1.49144 40.588C1.78077 40.0933 2.1401 39.6453 2.56944 39.244C2.99877 38.8427 3.5541 38.488 4.23544 38.18C4.91677 37.872 5.67744 37.6527 6.51744 37.522L6.75544 37.886L6.29344 39.09C6.0321 39.0527 5.75677 39.034 5.46744 39.034C4.8141 39.034 4.24477 39.1507 3.75944 39.384C3.2741 39.608 2.90544 39.9067 2.65344 40.28C2.17744 41.0173 1.93944 41.8247 1.93944 42.702C1.93944 43.85 2.10744 44.7273 2.44344 45.334C2.78877 45.9313 3.19944 46.23 3.67544 46.23C4.63677 46.23 5.32744 45.4973 5.74744 44.032C5.7101 43.7333 5.69144 43.388 5.69144 42.996C5.69144 42.5947 5.7381 42.128 5.83144 41.596L6.16744 41.372L7.31544 41.89C7.01677 42.4593 6.86744 43.248 6.86744 44.256C6.86744 45.264 6.9841 46.244 7.21744 47.196ZM12.2446 40.588L13.3786 40.098L13.7146 40.294C13.4066 41.1993 13.2526 42.2447 13.2526 43.43C13.2526 43.934 13.2946 44.634 13.3786 45.53C13.4626 46.426 13.542 47.0327 13.6166 47.35C13.6166 47.378 13.5466 47.392 13.4066 47.392C13.2666 47.392 13.1313 47.3267 13.0006 47.196C12.702 46.5053 12.464 45.488 12.2866 44.144C11.8946 45.0773 11.4233 45.838 10.8726 46.426C10.3313 47.014 9.84131 47.308 9.40264 47.308C8.56264 47.308 8.14264 46.7807 8.14264 45.726C8.14264 45.1193 8.26397 44.536 8.50664 43.976C8.74931 43.416 9.07597 42.926 9.48664 42.506C10.308 41.6753 11.2273 41.036 12.2446 40.588ZM10.1586 45.628C10.4573 45.628 10.7886 45.39 11.1526 44.914C11.526 44.4287 11.8573 43.7473 12.1466 42.87C12.1373 42.7393 12.1326 42.4873 12.1326 42.114C12.1326 41.7407 12.1373 41.4653 12.1466 41.288C11.344 41.7453 10.6953 42.2353 10.2006 42.758C9.70597 43.2713 9.45864 43.878 9.45864 44.578C9.45864 45.278 9.69197 45.628 10.1586 45.628ZM15.3908 47.126C15.6148 45.95 15.7268 44.8813 15.7268 43.92C15.7268 42.9587 15.6895 42.282 15.6148 41.89C15.5495 41.4887 15.4748 41.1527 15.3908 40.882C15.3161 40.6113 15.2741 40.4573 15.2648 40.42L15.6008 40.21L16.7348 40.756C16.8095 41.4 16.8468 41.8853 16.8468 42.212C16.8468 42.5293 16.8468 42.7207 16.8468 42.786C17.2108 42.058 17.6121 41.4793 18.0508 41.05C18.4988 40.6113 18.9141 40.392 19.2968 40.392C19.6795 40.392 19.9641 40.5367 20.1508 40.826C20.3375 41.106 20.4308 41.4607 20.4308 41.89C20.4308 42.3193 20.4168 42.716 20.3888 43.08C20.7528 42.2773 21.1728 41.6287 21.6488 41.134C22.1248 40.6393 22.5588 40.392 22.9508 40.392C23.3521 40.392 23.6461 40.5367 23.8328 40.826C24.0195 41.106 24.1128 41.4653 24.1128 41.904C24.1128 42.3333 24.0941 42.786 24.0568 43.262C24.0195 43.7287 23.9775 44.13 23.9308 44.466C23.8935 44.7927 23.8328 45.2453 23.7488 45.824C23.6741 46.3933 23.6181 46.8227 23.5808 47.112C23.4688 47.2427 23.2681 47.308 22.9788 47.308C22.9228 47.308 22.8948 47.294 22.8948 47.266C23.0161 45.9313 23.0768 44.9327 23.0768 44.27C23.0768 42.8047 22.8155 42.072 22.2928 42.072C21.8915 42.072 21.4808 42.4127 21.0608 43.094C20.6501 43.7753 20.3095 44.7367 20.0388 45.978C20.0015 46.23 19.9548 46.608 19.8988 47.112C19.7868 47.2427 19.5815 47.308 19.2828 47.308C19.2361 47.308 19.2128 47.294 19.2128 47.266C19.3341 45.9313 19.3948 44.9327 19.3948 44.27C19.3948 42.8047 19.1335 42.072 18.6108 42.072C18.2748 42.072 17.9248 42.324 17.5608 42.828C17.1968 43.3227 16.8748 44.0367 16.5948 44.97C16.4735 45.614 16.2821 46.286 16.0208 46.986C15.8901 47.1167 15.7501 47.182 15.6008 47.182C15.4608 47.182 15.3908 47.1633 15.3908 47.126ZM30.1895 41.848C30.0868 42.2773 29.8815 42.6647 29.5735 43.01C29.2655 43.3553 28.9155 43.6307 28.5235 43.836C27.8048 44.2093 27.1748 44.4473 26.6335 44.55C26.6708 45.0167 26.7921 45.362 26.9975 45.586C27.2028 45.81 27.4501 45.922 27.7395 45.922C28.5608 45.922 29.3028 45.2313 29.9655 43.85C29.9748 43.794 30.0215 43.766 30.1055 43.766C30.1895 43.766 30.3155 43.8313 30.4835 43.962C30.0821 44.9327 29.5875 45.7353 28.9995 46.37C28.4208 46.9953 27.8421 47.308 27.2635 47.308C26.6848 47.308 26.2321 47.098 25.9055 46.678C25.5881 46.258 25.4295 45.6933 25.4295 44.984C25.4295 44.004 25.6955 43.0987 26.2275 42.268C26.5168 41.82 26.9228 41.428 27.4455 41.092C27.9775 40.7467 28.6075 40.49 29.3355 40.322C29.9048 40.518 30.1895 41.0267 30.1895 41.848ZM28.5515 41.428C28.1595 41.428 27.7535 41.6567 27.3335 42.114C26.9135 42.562 26.6801 43.1873 26.6335 43.99C27.4081 43.7847 28.0008 43.486 28.4115 43.094C28.8315 42.6927 29.0415 42.3007 29.0415 41.918C29.0415 41.778 28.9995 41.6613 28.9155 41.568C28.8315 41.4747 28.7101 41.428 28.5515 41.428ZM35.6464 40.392L35.1984 41.638C34.7691 41.358 34.3444 41.218 33.9244 41.218C33.2337 41.218 32.8884 41.484 32.8884 42.016C32.8884 42.38 33.1777 42.8047 33.7564 43.29C34.0084 43.4953 34.2557 43.71 34.4984 43.934C35.0771 44.466 35.3664 45.0027 35.3664 45.544C35.3664 45.964 35.2077 46.3653 34.8904 46.748C34.7131 46.9533 34.4237 47.1167 34.0224 47.238C33.6304 47.3687 33.1777 47.434 32.6644 47.434C32.1511 47.434 31.6891 47.3687 31.2784 47.238C31.2317 47.2007 31.1757 47.1167 31.1104 46.986C31.0544 46.846 31.0264 46.748 31.0264 46.692C31.0264 46.636 31.0357 46.608 31.0544 46.608C31.0824 46.608 31.1524 46.622 31.2644 46.65C31.5444 46.7247 31.8991 46.762 32.3284 46.762C32.7577 46.762 33.1171 46.6687 33.4064 46.482C33.7051 46.2953 33.8544 46.0573 33.8544 45.768C33.8544 45.4787 33.7331 45.194 33.4904 44.914C33.2571 44.634 32.9957 44.382 32.7064 44.158C32.4264 43.934 32.1651 43.6587 31.9224 43.332C31.6891 42.996 31.5724 42.66 31.5724 42.324C31.5724 42.0253 31.6704 41.7593 31.8664 41.526C32.0717 41.2833 32.3051 41.0827 32.5664 40.924C33.2011 40.5507 34.1251 40.2847 35.3384 40.126L35.6464 40.392ZM37.8747 43.458L37.8607 43.136C37.6367 43.108 37.3567 43.052 37.0207 42.968C36.8807 42.8373 36.8107 42.646 36.8107 42.394C36.8107 42.31 36.8247 42.268 36.8527 42.268C36.89 42.268 36.9507 42.2773 37.0347 42.296C37.2307 42.3613 37.5014 42.4127 37.8467 42.45C37.8094 41.7407 37.73 41.0267 37.6087 40.308C37.4967 39.58 37.394 39.0293 37.3007 38.656L37.1607 38.096L38.3787 37.522L38.7427 37.746C38.8827 38.5767 38.9527 39.398 38.9527 40.21C38.9527 41.022 38.9294 41.778 38.8827 42.478C40.1427 42.422 41.188 42.2073 42.0187 41.834C42.0094 41.638 42.0047 41.1947 42.0047 40.504C42.0047 39.804 42.0934 38.8847 42.2707 37.746L42.6347 37.522L43.8247 38.096C43.3954 39.1973 43.1807 40.8913 43.1807 43.178C43.1807 44.8767 43.2507 46.2953 43.3907 47.434C43.3907 47.462 43.3534 47.476 43.2787 47.476C43.036 47.476 42.854 47.406 42.7327 47.266C42.3967 45.558 42.182 44.1067 42.0887 42.912C41.0994 43.1173 40.1894 43.22 39.3587 43.22H38.8267C38.724 44.3027 38.542 45.628 38.2807 47.196C38.2154 47.2707 38.108 47.3313 37.9587 47.378C37.8187 47.434 37.6974 47.462 37.5947 47.462C37.5014 47.462 37.4547 47.4387 37.4547 47.392L37.4967 47.238C37.7487 46.314 37.8747 45.054 37.8747 43.458ZM48.9673 40.588L50.1013 40.098L50.4373 40.294C50.1293 41.1993 49.9753 42.2447 49.9753 43.43C49.9753 43.934 50.0173 44.634 50.1013 45.53C50.1853 46.426 50.2646 47.0327 50.3393 47.35C50.3393 47.378 50.2693 47.392 50.1293 47.392C49.9893 47.392 49.854 47.3267 49.7233 47.196C49.4246 46.5053 49.1866 45.488 49.0093 44.144C48.6173 45.0773 48.146 45.838 47.5953 46.426C47.054 47.014 46.564 47.308 46.1253 47.308C45.2853 47.308 44.8653 46.7807 44.8653 45.726C44.8653 45.1193 44.9866 44.536 45.2293 43.976C45.472 43.416 45.7986 42.926 46.2093 42.506C47.0306 41.6753 47.95 41.036 48.9673 40.588ZM46.8813 45.628C47.18 45.628 47.5113 45.39 47.8753 44.914C48.2486 44.4287 48.58 43.7473 48.8693 42.87C48.86 42.7393 48.8553 42.4873 48.8553 42.114C48.8553 41.7407 48.86 41.4653 48.8693 41.288C48.0666 41.7453 47.418 42.2353 46.9233 42.758C46.4286 43.2713 46.1813 43.878 46.1813 44.578C46.1813 45.278 46.4146 45.628 46.8813 45.628ZM57.0835 40.364L57.0695 40.448C56.5468 41.3907 56.0755 42.4407 55.6555 43.598C55.2448 44.746 54.9741 45.8473 54.8435 46.902L53.6395 47.392C53.4061 47.392 53.2288 47.3267 53.1075 47.196C52.7808 46.4307 52.4868 45.502 52.2255 44.41C51.9735 43.3087 51.8475 42.3053 51.8475 41.4C51.8475 41.008 51.8708 40.6907 51.9175 40.448L52.2675 40.21L53.3875 40.77C53.2195 41.47 53.1355 42.2633 53.1355 43.15C53.1355 44.0273 53.2568 45.1147 53.4995 46.412C53.7701 45.46 54.1901 44.424 54.7595 43.304C55.3288 42.1747 55.8888 41.2413 56.4395 40.504C56.6168 40.3733 56.8175 40.308 57.0415 40.308C57.0695 40.308 57.0835 40.3267 57.0835 40.364ZM62.127 41.848C62.0243 42.2773 61.819 42.6647 61.511 43.01C61.203 43.3553 60.853 43.6307 60.461 43.836C59.7423 44.2093 59.1123 44.4473 58.571 44.55C58.6083 45.0167 58.7296 45.362 58.935 45.586C59.1403 45.81 59.3876 45.922 59.677 45.922C60.4983 45.922 61.2403 45.2313 61.903 43.85C61.9123 43.794 61.959 43.766 62.043 43.766C62.127 43.766 62.253 43.8313 62.421 43.962C62.0196 44.9327 61.525 45.7353 60.937 46.37C60.3583 46.9953 59.7796 47.308 59.201 47.308C58.6223 47.308 58.1696 47.098 57.843 46.678C57.5256 46.258 57.367 45.6933 57.367 44.984C57.367 44.004 57.633 43.0987 58.165 42.268C58.4543 41.82 58.8603 41.428 59.383 41.092C59.915 40.7467 60.545 40.49 61.273 40.322C61.8423 40.518 62.127 41.0267 62.127 41.848ZM60.489 41.428C60.097 41.428 59.691 41.6567 59.271 42.114C58.851 42.562 58.6176 43.1873 58.571 43.99C59.3456 43.7847 59.9383 43.486 60.349 43.094C60.769 42.6927 60.979 42.3007 60.979 41.918C60.979 41.778 60.937 41.6613 60.853 41.568C60.769 41.4747 60.6476 41.428 60.489 41.428ZM63.7619 47.126C63.9859 45.95 64.0979 44.8813 64.0979 43.92C64.0979 42.9587 64.0606 42.282 63.9859 41.89C63.9206 41.4887 63.8459 41.1527 63.7619 40.882C63.6872 40.6113 63.6452 40.4573 63.6359 40.42L63.9719 40.21L65.1059 40.756C65.1806 41.2973 65.2179 41.75 65.2179 42.114C65.2179 42.478 65.2132 42.744 65.2039 42.912C65.5959 42.1467 66.0299 41.5353 66.5059 41.078C66.9819 40.6207 67.4206 40.392 67.8219 40.392C68.5966 40.392 68.9839 40.9193 68.9839 41.974C68.9839 42.7953 68.9046 43.78 68.7459 44.928C68.5872 46.0667 68.4892 46.7947 68.4519 47.112C68.3399 47.2427 68.1346 47.308 67.8359 47.308C67.7706 47.308 67.7379 47.294 67.7379 47.266C67.8779 46.0713 67.9479 45.0727 67.9479 44.27C67.9479 42.8047 67.6726 42.072 67.1219 42.072C66.7019 42.072 66.2679 42.4127 65.8199 43.094C65.3812 43.7753 65.0219 44.7367 64.7419 45.978H64.7139C64.5832 46.426 64.4759 46.762 64.3919 46.986C64.2612 47.1167 64.1212 47.182 63.9719 47.182C63.8319 47.182 63.7619 47.1633 63.7619 47.126Z" fill="#F5AA00"/>
<defs>
<clipPath id="clip0_768_6225">
<rect width="15" height="15" fill="white" transform="translate(10 13)"/>
</clipPath>
<clipPath id="clip1_768_6225">
<rect width="15" height="15" fill="white" transform="matrix(-1 0 0 1 60 13)"/>
</clipPath>
</defs>
</svg>
