<svg width="40" height="40" viewBox="0 0 40 40" fill="none" xmlns="http://www.w3.org/2000/svg">
<g id="ph:nut-bold">
<path id="Vector" d="M11.875 20C11.875 21.607 12.3515 23.1779 13.2443 24.514C14.1371 25.8502 15.406 26.8916 16.8907 27.5065C18.3753 28.1215 20.009 28.2824 21.5851 27.9689C23.1612 27.6554 24.6089 26.8815 25.7452 25.7452C26.8815 24.6089 27.6554 23.1612 27.9689 21.5851C28.2824 20.009 28.1215 18.3754 27.5065 16.8907C26.8916 15.4061 25.8502 14.1371 24.514 13.2443C23.1779 12.3515 21.607 11.875 20 11.875C17.8458 11.8771 15.7803 12.7338 14.257 14.257C12.7338 15.7803 11.8771 17.8458 11.875 20ZM24.375 20C24.375 20.8653 24.1184 21.7112 23.6377 22.4306C23.1569 23.1501 22.4737 23.7108 21.6742 24.042C20.8748 24.3731 19.9951 24.4597 19.1465 24.2909C18.2978 24.1221 17.5183 23.7055 16.9064 23.0936C16.2946 22.4817 15.8779 21.7022 15.7091 20.8535C15.5403 20.0049 15.6269 19.1252 15.958 18.3258C16.2892 17.5263 16.8499 16.8431 17.5694 16.3623C18.2888 15.8816 19.1347 15.625 20 15.625C21.1603 15.625 22.2731 16.0859 23.0936 16.9064C23.9141 17.7269 24.375 18.8397 24.375 20ZM35.25 9.7875L21.5 2.26094C21.0405 2.00804 20.5245 1.87543 20 1.87543C19.4755 1.87543 18.9595 2.00804 18.5 2.26094L4.75 9.7875C4.258 10.0567 3.8475 10.4534 3.56159 10.9358C3.27567 11.4183 3.12487 11.9689 3.125 12.5297V27.4703C3.12487 28.0312 3.27567 28.5817 3.56159 29.0642C3.8475 29.5467 4.258 29.9433 4.75 30.2125L18.5 37.7391C18.9594 37.9922 19.4754 38.125 20 38.125C20.5246 38.125 21.0406 37.9922 21.5 37.7391L35.25 30.2125C35.742 29.9433 36.1525 29.5467 36.4384 29.0642C36.7243 28.5817 36.8751 28.0312 36.875 27.4703V12.5297C36.8751 11.9689 36.7243 11.4183 36.4384 10.9358C36.1525 10.4534 35.742 10.0567 35.25 9.7875ZM33.125 27.1L20 34.2875L6.875 27.1V12.9L20 5.7125L33.125 12.9V27.1Z" fill="#F0EDED"/>
</g>
</svg>
