<svg width="50" height="50" viewBox="0 0 50 50" fill="none" xmlns="http://www.w3.org/2000/svg">
<g id="simple-icons:barclays">
<path id="Vector" d="M43.8395 7.56042C43.1868 7.05485 42.4468 6.67352 41.6562 6.43542C41.0249 6.23515 40.3664 6.13394 39.7041 6.13542H39.6083C38.7479 6.14792 37.1416 6.35417 36.0645 7.61458C35.8211 7.90613 35.6512 8.25191 35.5693 8.6228C35.4874 8.9937 35.4957 9.37885 35.5937 9.74583C35.6652 10.0421 35.8079 10.3165 36.0094 10.5452C36.2109 10.7739 36.4651 10.95 36.75 11.0583C36.75 11.0583 36.9333 11.125 37.225 11.1792C37.1416 11.3417 36.9416 11.625 36.9416 11.625C36.5687 12.1771 35.7416 12.9 33.4666 12.9H33.3354C32.1312 12.8208 31.1354 12.5062 29.9687 10.9937C29.2458 10.0562 28.8791 8.47917 28.825 5.88542C28.7791 4.58542 28.602 3.45833 28.2916 2.55208C28.0833 1.94792 27.5979 1.31042 27.1312 1.00625C26.6875 0.700981 26.2 0.464949 25.6854 0.30625C24.9083 0.0562504 23.9187 0.0145838 23.177 0.00208377C22.2145 -0.0187496 21.6833 0.202084 21.3479 0.610417C21.2916 0.679167 21.2812 0.714584 21.2062 0.70625C21.0312 0.69375 20.6395 0.69375 20.5229 0.69375C19.9729 0.69375 19.4854 0.783334 19.0208 0.88125C18.0416 1.08958 17.4354 1.49583 16.8979 1.92917C16.6479 2.12708 16.175 2.68958 16.0666 3.28958C16.0189 3.49368 16.0122 3.70522 16.0469 3.91193C16.0816 4.11864 16.157 4.3164 16.2687 4.49375C16.5604 4.18542 17.0479 3.94375 17.9687 3.93958C18.9958 3.93542 20.4041 4.40625 20.8979 5.20625C21.5979 6.34583 21.4604 7.26875 21.3125 8.36667C20.9312 11.1729 19.8958 12.6333 17.5979 12.9562C17.2 13.0104 16.8062 13.0396 16.4312 13.0396C14.8145 13.0396 13.6395 12.5229 13.0354 11.5479C12.9589 11.44 12.8972 11.3223 12.852 11.1979C12.852 11.1979 13.0333 11.1542 13.1916 11.0812C13.8041 10.7896 14.2625 10.3646 14.4291 9.70417C14.6166 8.96875 14.4375 8.1875 13.95 7.60625C13.0854 6.62708 11.8854 6.13125 10.3812 6.13125C9.54788 6.13125 8.8083 6.28958 8.33538 6.42292C6.44371 6.95625 4.9333 8.39583 3.72288 10.8229C2.86455 12.5396 2.26455 14.8063 2.03538 17.2125C1.80621 19.5667 1.91871 21.5563 2.07496 23.3563C2.3333 26.35 2.83121 28.1437 3.54996 30.0646C4.41047 32.4003 5.53513 34.6301 6.90205 36.7104C7.08955 36.5146 7.21455 36.375 7.54371 36.0479C7.93538 35.6521 9.05205 34.1875 9.36871 33.7354C9.76455 33.1729 10.4312 32.1125 10.752 31.3458L11.0645 31.5938C11.3979 31.8583 11.5895 32.3187 11.5833 32.8271C11.577 33.275 11.4729 33.7938 11.2 34.7479C10.8014 36.0684 10.2534 37.3392 9.56663 38.5354C9.17288 39.2458 9.00413 39.5938 9.15205 39.7521C9.1833 39.7833 9.23121 39.8146 9.27705 39.8063C9.51871 39.8063 9.98538 39.5625 10.4958 39.1729C10.9583 38.8187 12.1895 37.7729 13.677 35.6833C14.8483 34.0317 15.8612 32.2732 16.702 30.4313C16.952 30.5271 17.2333 30.6417 17.3625 30.9021C17.5405 31.2656 17.5988 31.6762 17.5291 32.075C17.3937 33.1979 16.7395 34.8937 16.2166 36.1167C15.3312 38.1958 13.7 40.5229 12.4916 42.1104C12.4458 42.1729 12.152 42.5208 12.1041 42.5833C13.9791 44.2333 16.1541 45.8229 18.3687 47.0333C19.8791 47.8833 22.9583 49.4542 25 50C27.0416 49.4542 30.1208 47.8833 31.6333 47.0333C33.8731 45.7815 35.9707 44.2909 37.8895 42.5875C37.7854 42.4292 37.6187 42.2583 37.5083 42.1083C36.2958 40.5187 34.6645 38.1896 33.7791 36.1188C33.2583 34.8896 32.6062 33.1917 32.4708 32.0771C32.4125 31.6167 32.4666 31.2083 32.6375 30.9C32.7062 30.6958 33.2083 30.4458 33.2979 30.4292C34.1416 32.2708 35.1458 34.0333 36.3229 35.6833C37.8125 37.7729 39.0437 38.8208 39.5041 39.1708C40.0208 39.5687 40.477 39.8042 40.725 39.8042C40.7575 39.8063 40.7897 39.7975 40.8166 39.7792C41.0125 39.6354 40.852 39.2917 40.4354 38.5417C39.7514 37.3406 39.2022 36.0676 38.7979 34.7458C38.527 33.7958 38.4229 33.275 38.4187 32.8292C38.4104 32.3167 38.602 31.8583 38.9354 31.5917L39.2479 31.3458C39.5708 32.1229 40.2895 33.2604 40.6333 33.7354C40.9458 34.1854 42.0604 35.65 42.4583 36.0479C42.7833 36.3771 42.9166 36.5104 43.1 36.7146C44.467 34.6343 45.5917 32.4046 46.452 30.0687C47.1666 28.1458 47.6666 26.3521 47.925 23.3563C48.0812 21.5646 48.1916 19.5854 47.9666 17.2146C47.7562 14.8896 47.125 12.4979 46.2791 10.8229C45.7604 9.80208 45.0187 8.50625 43.8395 7.56042Z" fill="#EEEEEE"/>
</g>
</svg>
