<svg width="50" height="50" viewBox="0 0 50 50" fill="none" xmlns="http://www.w3.org/2000/svg">
<g id="simple-icons:bankofamerica">
<path id="Vector" d="M31.6542 15.7708C32.6688 15.4312 33.8354 15.1312 34.85 14.8312C31.9167 13.5896 28.2333 12.275 24.925 11.4458C24.3979 11.5979 22.8208 12.0104 21.7292 12.35C22.8562 12.6875 26.5792 13.5521 31.6542 15.7708ZM13.1208 29.9062C14.3229 30.6208 15.6 31.5979 16.8417 32.425C25.075 26.0333 33.1958 21.1083 42.1063 18.3271C40.8646 17.6875 39.775 17.1229 38.3833 16.4479C33.0458 17.8021 23.9104 21.4479 13.1208 29.9062ZM11.5417 16.4479C7.14167 18.4771 2.51875 21.2604 0 22.875C0.902083 23.2896 1.80417 23.6271 3.04375 24.2291C8.60833 20.4687 12.9687 18.1771 14.6979 17.425C13.4583 16.9729 12.2937 16.675 11.5417 16.4479ZM28.3458 16.9354C26.9167 16.1458 21.9542 14.3041 18.5333 13.5146C17.5187 13.8896 16.0896 14.4541 15.1125 14.8687C16.3521 15.2062 20.9771 16.4479 24.925 18.4396C25.9396 17.95 27.3687 17.35 28.3458 16.9354ZM21.3167 20.1687C20.15 19.6062 18.8729 19.0791 17.8937 18.6271C14.925 20.0937 11.0521 22.3125 6.16458 25.8083C7.21667 26.3708 8.34583 27.0479 9.54792 27.725C13.3083 24.9437 17.1042 22.3125 21.3167 20.1687ZM24.925 38.5541C32.8208 31.7854 43.9104 25.2062 50 22.8375C48.6656 22.0036 47.3118 21.2013 45.9396 20.4312C38.0833 23.0271 28.9104 28.7791 20.7146 35.2833C22.1042 36.3354 23.5729 37.425 24.925 38.5541ZM30.8646 38.0646H30.6396L30.2646 37.5021H30.0375V38.0646H29.8875V36.8229H30.45C30.5646 36.8229 30.6771 36.8229 30.7521 36.8979C30.8646 36.9375 30.9021 37.05 30.9021 37.1625C30.9021 37.3875 30.7146 37.5 30.4896 37.5L30.8646 38.0646ZM30.2625 37.35C30.45 37.35 30.6771 37.3875 30.6771 37.1625C30.6771 37.0125 30.5271 36.975 30.3771 36.975H30.0375V37.35H30.2625ZM29.1729 37.425C29.1729 36.8229 29.6625 36.3354 30.3 36.3354C30.9396 36.3354 31.4292 36.8229 31.4292 37.425C31.4286 37.7243 31.3095 38.0112 31.0978 38.2228C30.8862 38.4344 30.5993 38.5536 30.3 38.5541C30.1513 38.5564 30.0036 38.5287 29.8658 38.4727C29.7281 38.4167 29.603 38.3336 29.498 38.2282C29.393 38.1228 29.3103 37.9974 29.2548 37.8594C29.1993 37.7214 29.1701 37.5737 29.1729 37.425ZM29.3979 37.425C29.3979 37.9146 29.8125 38.3271 30.3375 38.3271C30.4535 38.3271 30.5684 38.3042 30.6755 38.2598C30.7827 38.2154 30.8801 38.1504 30.9621 38.0683C31.0441 37.9863 31.1092 37.8889 31.1536 37.7818C31.198 37.6746 31.2208 37.5597 31.2208 37.4437C31.2208 37.3277 31.198 37.2129 31.1536 37.1057C31.1092 36.9985 31.0441 36.9011 30.9621 36.8191C30.8801 36.7371 30.7827 36.672 30.6755 36.6276C30.5684 36.5832 30.4535 36.5604 30.3375 36.5604C29.775 36.5604 29.4 36.975 29.4 37.425" fill="#EEEEEE"/>
</g>
</svg>
