<svg width="30" height="30" viewBox="0 0 30 30" fill="none" xmlns="http://www.w3.org/2000/svg">
<g id="tdesign:user">
<path id="Vector" d="M15 5C13.8397 5 12.7269 5.46094 11.9064 6.28141C11.0859 7.10188 10.625 8.21468 10.625 9.375C10.625 10.5353 11.0859 11.6481 11.9064 12.4686C12.7269 13.2891 13.8397 13.75 15 13.75C16.1603 13.75 17.2731 13.2891 18.0936 12.4686C18.9141 11.6481 19.375 10.5353 19.375 9.375C19.375 8.21468 18.9141 7.10188 18.0936 6.28141C17.2731 5.46094 16.1603 5 15 5ZM8.125 9.375C8.125 7.55164 8.84933 5.80295 10.1386 4.51364C11.428 3.22433 13.1766 2.5 15 2.5C16.8234 2.5 18.572 3.22433 19.8614 4.51364C21.1507 5.80295 21.875 7.55164 21.875 9.375C21.875 11.1984 21.1507 12.947 19.8614 14.2364C18.572 15.5257 16.8234 16.25 15 16.25C13.1766 16.25 11.428 15.5257 10.1386 14.2364C8.84933 12.947 8.125 11.1984 8.125 9.375ZM3.75 23.75C3.75 22.0924 4.40848 20.5027 5.58058 19.3306C6.75269 18.1585 8.3424 17.5 10 17.5H20C21.6576 17.5 23.2473 18.1585 24.4194 19.3306C25.5915 20.5027 26.25 22.0924 26.25 23.75V27.5H3.75V23.75ZM10 20C9.00544 20 8.05161 20.3951 7.34835 21.0983C6.64509 21.8016 6.25 22.7554 6.25 23.75V25H23.75V23.75C23.75 22.7554 23.3549 21.8016 22.6517 21.0983C21.9484 20.3951 20.9946 20 20 20H10Z" fill="#F0EDED"/>
</g>
</svg>
