<svg width="40" height="40" viewBox="0 0 40 40" fill="none" xmlns="http://www.w3.org/2000/svg">
<g id="uil:edit">
<path id="Vector" d="M34.9999 20C34.5579 20 34.134 20.1756 33.8214 20.4882C33.5088 20.8007 33.3333 21.2246 33.3333 21.6667V31.6667C33.3333 32.1087 33.1577 32.5326 32.8451 32.8452C32.5325 33.1577 32.1086 33.3333 31.6666 33.3333H8.33325C7.89122 33.3333 7.4673 33.1577 7.15474 32.8452C6.84218 32.5326 6.66659 32.1087 6.66659 31.6667V8.33333C6.66659 7.89131 6.84218 7.46738 7.15474 7.15482C7.4673 6.84226 7.89122 6.66667 8.33325 6.66667H18.3333C18.7753 6.66667 19.1992 6.49107 19.5118 6.17851C19.8243 5.86595 19.9999 5.44203 19.9999 5C19.9999 4.55797 19.8243 4.13405 19.5118 3.82149C19.1992 3.50893 18.7753 3.33333 18.3333 3.33333H8.33325C7.00717 3.33333 5.7354 3.86012 4.79772 4.7978C3.86004 5.73548 3.33325 7.00725 3.33325 8.33333V31.6667C3.33325 32.9928 3.86004 34.2645 4.79772 35.2022C5.7354 36.1399 7.00717 36.6667 8.33325 36.6667H31.6666C32.9927 36.6667 34.2644 36.1399 35.2021 35.2022C36.1398 34.2645 36.6666 32.9928 36.6666 31.6667V21.6667C36.6666 21.2246 36.491 20.8007 36.1784 20.4882C35.8659 20.1756 35.4419 20 34.9999 20ZM9.99992 21.2667V28.3333C9.99992 28.7754 10.1755 29.1993 10.4881 29.5118C10.8006 29.8244 11.2246 30 11.6666 30H18.7333C18.9526 30.0013 19.17 29.9592 19.3731 29.8763C19.5762 29.7933 19.7609 29.6711 19.9166 29.5167L31.4499 17.9667L36.1833 13.3333C36.3395 13.1784 36.4635 12.9941 36.5481 12.791C36.6327 12.5879 36.6763 12.37 36.6763 12.15C36.6763 11.93 36.6327 11.7121 36.5481 11.509C36.4635 11.3059 36.3395 11.1216 36.1833 10.9667L29.1166 3.81667C28.9616 3.66045 28.7773 3.53646 28.5742 3.45185C28.3711 3.36723 28.1533 3.32367 27.9333 3.32367C27.7132 3.32367 27.4954 3.36723 27.2923 3.45185C27.0892 3.53646 26.9049 3.66045 26.7499 3.81667L22.0499 8.53333L10.4833 20.0833C10.3288 20.2391 10.2066 20.4238 10.1236 20.6268C10.0407 20.8299 9.99865 21.0473 9.99992 21.2667ZM27.9333 7.35L32.6499 12.0667L30.2833 14.4333L25.5666 9.71667L27.9333 7.35ZM13.3333 21.95L23.2166 12.0667L27.9333 16.7833L18.0499 26.6667H13.3333V21.95Z" fill="#F0EDED"/>
</g>
</svg>
